<svg width="15" height="16" viewBox="0 0 15 16" fill="none" xmlns="http://www.w3.org/2000/svg">
<path d="M8.37484 -1.19209e-06V15H5.73484V0.799999L7.17484 2.08L0.894844 3.18V1.08L6.39484 -1.19209e-06H8.37484ZM12.7089 15.16C12.4022 15.16 12.1222 15.0867 11.8689 14.94C11.6289 14.7933 11.4356 14.6 11.2889 14.36C11.1422 14.1067 11.0689 13.8267 11.0689 13.52C11.0689 13.2133 11.1422 12.94 11.2889 12.7C11.4356 12.4467 11.6289 12.2467 11.8689 12.1C12.1222 11.9533 12.4022 11.88 12.7089 11.88C13.0156 11.88 13.2889 11.9533 13.5289 12.1C13.7822 12.2467 13.9822 12.4467 14.1289 12.7C14.2756 12.94 14.3489 13.2133 14.3489 13.52C14.3489 13.8267 14.2756 14.1067 14.1289 14.36C13.9822 14.6 13.7822 14.7933 13.5289 14.94C13.2889 15.0867 13.0156 15.16 12.7089 15.16Z" fill="black"/>
</svg>
