<svg width="20" height="17" viewBox="0 0 20 17" fill="none" xmlns="http://www.w3.org/2000/svg">
<path d="M0.37125 6.16C0.45125 5.05333 0.804583 4.09333 1.43125 3.28C2.07125 2.46667 2.91792 1.84 3.97125 1.4C5.02458 0.946666 6.22458 0.719999 7.57125 0.719999C8.85125 0.719999 9.97125 0.919999 10.9313 1.32C11.9046 1.72 12.6579 2.28 13.1913 3C13.7379 3.72 14.0113 4.55333 14.0113 5.5C14.0113 6.23333 13.8313 6.91333 13.4713 7.54C13.1246 8.16667 12.5446 8.80667 11.7313 9.46C10.9313 10.1 9.84458 10.8267 8.47125 11.64L3.49125 14.58L3.15125 13.8H14.4713V16H0.51125V14.08L6.89125 10.2C8.01125 9.52 8.89125 8.93333 9.53125 8.44C10.1846 7.93333 10.6513 7.46 10.9313 7.02C11.2113 6.58 11.3513 6.11333 11.3513 5.62C11.3513 5.1 11.2113 4.63333 10.9313 4.22C10.6513 3.80667 10.2246 3.48 9.65125 3.24C9.09125 3 8.37125 2.88 7.49125 2.88C6.49125 2.88 5.67125 3.02667 5.03125 3.32C4.39125 3.61333 3.91125 4.01333 3.59125 4.52C3.28458 5.01333 3.09792 5.56 3.03125 6.16H0.37125ZM17.8925 16.16C17.5858 16.16 17.3058 16.0867 17.0525 15.94C16.8125 15.7933 16.6192 15.6 16.4725 15.36C16.3258 15.1067 16.2525 14.8267 16.2525 14.52C16.2525 14.2133 16.3258 13.94 16.4725 13.7C16.6192 13.4467 16.8125 13.2467 17.0525 13.1C17.3058 12.9533 17.5858 12.88 17.8925 12.88C18.1992 12.88 18.4725 12.9533 18.7125 13.1C18.9658 13.2467 19.1658 13.4467 19.3125 13.7C19.4592 13.94 19.5325 14.2133 19.5325 14.52C19.5325 14.8267 19.4592 15.1067 19.3125 15.36C19.1658 15.6 18.9658 15.7933 18.7125 15.94C18.4725 16.0867 18.1992 16.16 17.8925 16.16Z" fill="black"/>
</svg>
