<svg width="40" height="40" viewBox="0 0 40 40" fill="none" xmlns="http://www.w3.org/2000/svg">
<circle cx="20" cy="20" r="20" fill="black"/>
<path d="M13.4494 18.16C13.5294 17.0533 13.8827 16.0933 14.5094 15.28C15.1494 14.4667 15.996 13.84 17.0494 13.4C18.1027 12.9467 19.3027 12.72 20.6494 12.72C21.9294 12.72 23.0494 12.92 24.0094 13.32C24.9827 13.72 25.736 14.28 26.2694 15C26.816 15.72 27.0894 16.5533 27.0894 17.5C27.0894 18.2333 26.9094 18.9133 26.5494 19.54C26.2027 20.1667 25.6227 20.8067 24.8094 21.46C24.0094 22.1 22.9227 22.8267 21.5494 23.64L16.5694 26.58L16.2294 25.8H27.5494V28H13.5894V26.08L19.9694 22.2C21.0894 21.52 21.9694 20.9333 22.6094 20.44C23.2627 19.9333 23.7294 19.46 24.0094 19.02C24.2894 18.58 24.4294 18.1133 24.4294 17.62C24.4294 17.1 24.2894 16.6333 24.0094 16.22C23.7294 15.8067 23.3027 15.48 22.7294 15.24C22.1694 15 21.4494 14.88 20.5694 14.88C19.5694 14.88 18.7494 15.0267 18.1094 15.32C17.4694 15.6133 16.9894 16.0133 16.6694 16.52C16.3627 17.0133 16.176 17.56 16.1094 18.16H13.4494Z" fill="white"/>
</svg>
