<svg width="40" height="40" viewBox="0 0 40 40" fill="none" xmlns="http://www.w3.org/2000/svg">
<circle cx="20" cy="20" r="20" fill="black"/>
<path d="M13.6029 17.62C13.6962 16.7 14.0296 15.8733 14.6029 15.14C15.1896 14.3933 16.0029 13.8067 17.0429 13.38C18.0962 12.94 19.3496 12.72 20.8029 12.72C22.0962 12.72 23.2162 12.8933 24.1629 13.24C25.1229 13.5733 25.8629 14.0467 26.3829 14.66C26.9029 15.26 27.1629 15.9733 27.1629 16.8C27.1629 17.4933 26.9562 18.12 26.5429 18.68C26.1429 19.2267 25.5296 19.66 24.7029 19.98C23.8762 20.3 22.8429 20.46 21.6029 20.46V20.08C22.8296 20.0267 23.8829 20.14 24.7629 20.42C25.6429 20.6867 26.3162 21.1 26.7829 21.66C27.2629 22.2067 27.5029 22.88 27.5029 23.68C27.5029 24.5733 27.2296 25.3667 26.6829 26.06C26.1362 26.7533 25.3429 27.3 24.3029 27.7C23.2762 28.0867 22.0162 28.28 20.5229 28.28C19.0696 28.28 17.8029 28.0733 16.7229 27.66C15.6429 27.2333 14.7962 26.64 14.1829 25.88C13.5829 25.12 13.2496 24.2333 13.1829 23.22H15.8429C15.9629 24.1533 16.4162 24.8733 17.2029 25.38C17.9896 25.8733 19.0962 26.12 20.5229 26.12C21.9496 26.12 23.0229 25.8867 23.7429 25.42C24.4629 24.9533 24.8229 24.3133 24.8229 23.5C24.8229 23.02 24.6962 22.62 24.4429 22.3C24.2029 21.9667 23.7962 21.7133 23.2229 21.54C22.6629 21.3667 21.9029 21.28 20.9429 21.28H18.2229V19.32H20.9429C22.1829 19.32 23.0829 19.12 23.6429 18.72C24.2029 18.3067 24.4829 17.78 24.4829 17.14C24.4829 16.4333 24.1696 15.88 23.5429 15.48C22.9296 15.08 21.9696 14.88 20.6629 14.88C19.3829 14.88 18.3629 15.12 17.6029 15.6C16.8562 16.0667 16.4096 16.74 16.2629 17.62H13.6029Z" fill="white"/>
</svg>
