<svg width="20" height="17" viewBox="0 0 20 17" fill="none" xmlns="http://www.w3.org/2000/svg">
<path d="M0.524766 5.62C0.618099 4.7 0.951432 3.87333 1.52477 3.14C2.11143 2.39333 2.92477 1.80667 3.96477 1.38C5.0181 0.939999 6.27143 0.719999 7.72477 0.719999C9.0181 0.719999 10.1381 0.893332 11.0848 1.24C12.0448 1.57333 12.7848 2.04667 13.3048 2.66C13.8248 3.26 14.0848 3.97333 14.0848 4.8C14.0848 5.49333 13.8781 6.12 13.4648 6.68C13.0648 7.22667 12.4514 7.66 11.6248 7.98C10.7981 8.3 9.76477 8.46 8.52477 8.46V8.08C9.75143 8.02667 10.8048 8.14 11.6848 8.42C12.5648 8.68667 13.2381 9.1 13.7048 9.66C14.1848 10.2067 14.4248 10.88 14.4248 11.68C14.4248 12.5733 14.1514 13.3667 13.6048 14.06C13.0581 14.7533 12.2648 15.3 11.2248 15.7C10.1981 16.0867 8.9381 16.28 7.44477 16.28C5.99143 16.28 4.72477 16.0733 3.64477 15.66C2.56477 15.2333 1.7181 14.64 1.10477 13.88C0.504766 13.12 0.171432 12.2333 0.104766 11.22H2.76477C2.88477 12.1533 3.3381 12.8733 4.12477 13.38C4.91143 13.8733 6.0181 14.12 7.44477 14.12C8.87143 14.12 9.94477 13.8867 10.6648 13.42C11.3848 12.9533 11.7448 12.3133 11.7448 11.5C11.7448 11.02 11.6181 10.62 11.3648 10.3C11.1248 9.96667 10.7181 9.71333 10.1448 9.54C9.58477 9.36667 8.82477 9.28 7.86477 9.28H5.14477V7.32H7.86477C9.10477 7.32 10.0048 7.12 10.5648 6.72C11.1248 6.30667 11.4048 5.78 11.4048 5.14C11.4048 4.43333 11.0914 3.88 10.4648 3.48C9.85143 3.08 8.89143 2.88 7.58477 2.88C6.30477 2.88 5.28477 3.12 4.52477 3.6C3.7781 4.06667 3.33143 4.74 3.18477 5.62H0.524766ZM18.039 16.16C17.7323 16.16 17.4523 16.0867 17.199 15.94C16.959 15.7933 16.7657 15.6 16.619 15.36C16.4723 15.1067 16.399 14.8267 16.399 14.52C16.399 14.2133 16.4723 13.94 16.619 13.7C16.7657 13.4467 16.959 13.2467 17.199 13.1C17.4523 12.9533 17.7323 12.88 18.039 12.88C18.3457 12.88 18.619 12.9533 18.859 13.1C19.1123 13.2467 19.3123 13.4467 19.459 13.7C19.6057 13.94 19.679 14.2133 19.679 14.52C19.679 14.8267 19.6057 15.1067 19.459 15.36C19.3123 15.6 19.1123 15.7933 18.859 15.94C18.619 16.0867 18.3457 16.16 18.039 16.16Z" fill="black"/>
</svg>
