<svg width="21" height="16" viewBox="0 0 21 16" fill="none" xmlns="http://www.w3.org/2000/svg">
<path d="M13.1545 -1.19209e-06V15H10.5145V1.1H11.5945L2.99453 10.66L2.93453 9.72H15.8945V11.84H0.854531V9.94L9.79453 -1.19209e-06H13.1545ZM19.0292 15.16C18.7226 15.16 18.4426 15.0867 18.1892 14.94C17.9492 14.7933 17.7559 14.6 17.6092 14.36C17.4626 14.1067 17.3892 13.8267 17.3892 13.52C17.3892 13.2133 17.4626 12.94 17.6092 12.7C17.7559 12.4467 17.9492 12.2467 18.1892 12.1C18.4426 11.9533 18.7226 11.88 19.0292 11.88C19.3359 11.88 19.6092 11.9533 19.8492 12.1C20.1026 12.2467 20.3026 12.4467 20.4492 12.7C20.5959 12.94 20.6692 13.2133 20.6692 13.52C20.6692 13.8267 20.5959 14.1067 20.4492 14.36C20.3026 14.6 20.1026 14.7933 19.8492 14.94C19.6092 15.0867 19.3359 15.16 19.0292 15.16Z" fill="black"/>
</svg>
