<svg width="15" height="12" viewBox="0 0 15 12" fill="none" xmlns="http://www.w3.org/2000/svg">
<path fill-rule="evenodd" clip-rule="evenodd" d="M0 5.80602C0 5.27349 0.431697 4.8418 0.964222 4.8418H13.4991C14.0316 4.8418 14.4633 5.27349 14.4633 5.80602C14.4633 6.33854 14.0316 6.77024 13.4991 6.77024H0.964222C0.431697 6.77024 0 6.33854 0 5.80602Z" fill="white"/>
<path fill-rule="evenodd" clip-rule="evenodd" d="M9.02913 1.26775C9.40568 0.891193 10.0162 0.891193 10.3927 1.26775L14.3182 5.19317C14.6947 5.56973 14.6947 6.18024 14.3182 6.55679L10.3927 10.4822C10.0162 10.8588 9.40568 10.8588 9.02913 10.4822C8.65258 10.1057 8.65258 9.49516 9.02913 9.1186L12.2728 5.87498L9.02913 2.63136C8.65258 2.25481 8.65258 1.6443 9.02913 1.26775Z" fill="white"/>
</svg>
