<svg width="15" height="11" viewBox="0 0 15 11" fill="none" xmlns="http://www.w3.org/2000/svg">
<path fill-rule="evenodd" clip-rule="evenodd" d="M14.5996 5.80602C14.5996 5.27349 14.1679 4.8418 13.6354 4.8418H1.10051C0.56801 4.8418 0.13631 5.27349 0.13631 5.80602C0.13631 6.33854 0.56801 6.77024 1.10051 6.77024H13.6354C14.1679 6.77024 14.5996 6.33854 14.5996 5.80602Z" fill="black"/>
<path fill-rule="evenodd" clip-rule="evenodd" d="M5.5711 1.26679C5.19455 0.890236 4.58399 0.890236 4.20749 1.26679L0.281993 5.19221C-0.0945071 5.56877 -0.0945071 6.17928 0.281993 6.55583L4.20749 10.4812C4.58399 10.8578 5.19455 10.8578 5.5711 10.4812C5.94765 10.1047 5.94765 9.4942 5.5711 9.11764L2.32739 5.87402L5.5711 2.6304C5.94765 2.25385 5.94765 1.64334 5.5711 1.26679Z" fill="black"/>
</svg>
