<svg width="15" height="11" viewBox="0 0 15 11" fill="none" xmlns="http://www.w3.org/2000/svg">
<path fill-rule="evenodd" clip-rule="evenodd" d="M0 5.80602C0 5.27349 0.431697 4.8418 0.964222 4.8418H13.4991C14.0316 4.8418 14.4633 5.27349 14.4633 5.80602C14.4633 6.33854 14.0316 6.77024 13.4991 6.77024H0.964222C0.431697 6.77024 0 6.33854 0 5.80602Z" fill="black"/>
<path fill-rule="evenodd" clip-rule="evenodd" d="M9.02899 1.26679C9.40554 0.890236 10.0161 0.890236 10.3926 1.26679L14.3181 5.19221C14.6946 5.56877 14.6946 6.17928 14.3181 6.55583L10.3926 10.4812C10.0161 10.8578 9.40554 10.8578 9.02899 10.4812C8.65244 10.1047 8.65244 9.4942 9.02899 9.11764L12.2727 5.87402L9.02899 2.6304C8.65244 2.25385 8.65244 1.64334 9.02899 1.26679Z" fill="black"/>
</svg>
