<svg width="201" height="192" viewBox="0 0 201 192" fill="none" xmlns="http://www.w3.org/2000/svg">
<path fill-rule="evenodd" clip-rule="evenodd" d="M124.21 163.153C130.317 146.106 134.132 122.425 134.132 96.1706C134.132 69.9166 130.317 46.235 124.21 29.1881C121.154 20.6561 117.562 13.8929 113.673 9.30091C109.776 4.70008 105.776 2.48925 101.858 2.48925C97.9402 2.48925 93.9396 4.70008 90.0431 9.30091C86.1541 13.8929 82.5617 20.6561 79.5054 29.1881C73.3991 46.235 69.584 69.9166 69.584 96.1706C69.584 122.425 73.3991 146.106 79.5054 163.153C82.5617 171.685 86.1541 178.448 90.0431 183.04C93.9396 187.641 97.9402 189.852 101.858 189.852C105.776 189.852 109.776 187.641 113.673 183.04C117.562 178.448 121.154 171.685 124.21 163.153ZM101.858 191.852C120.787 191.852 136.132 149.014 136.132 96.1706C136.132 43.3272 120.787 0.489258 101.858 0.489258C82.9289 0.489258 67.584 43.3272 67.584 96.1706C67.584 149.014 82.9289 191.852 101.858 191.852Z" fill="black"/>
<path fill-rule="evenodd" clip-rule="evenodd" d="M169.647 111.328C157.937 97.5165 139.335 82.3717 116.599 69.2447C93.8622 56.1177 71.4457 47.5809 53.6295 44.3457C44.7124 42.7264 37.0592 42.4561 31.1378 43.528C25.2052 44.602 21.2902 46.9612 19.3314 50.3541C17.3726 53.7469 17.2869 58.3169 19.3231 63.9918C21.3554 69.6558 25.4162 76.1485 31.2771 83.0613C42.9869 96.873 61.5883 112.018 84.3249 125.145C107.061 138.272 129.478 146.809 147.294 150.044C156.211 151.663 163.864 151.933 169.786 150.861C175.718 149.787 179.633 147.428 181.592 144.035C183.551 140.643 183.637 136.073 181.601 130.398C179.568 124.734 175.507 118.241 169.647 111.328ZM183.324 145.035C192.789 128.642 163.362 93.9343 117.599 67.5126C71.8351 41.091 27.0638 32.9611 17.5994 49.3541C8.13488 65.747 37.5612 100.455 83.3249 126.877C129.089 153.298 173.86 161.428 183.324 145.035Z" fill="black"/>
<path fill-rule="evenodd" clip-rule="evenodd" d="M147.296 43.7288C129.479 46.964 107.063 55.5009 84.3263 68.6278C61.5898 81.7548 42.9884 96.8996 31.2785 110.711C25.4177 117.624 21.3569 124.117 19.3246 129.781C17.2884 135.456 17.374 140.026 19.3329 143.419C21.2917 146.811 25.2067 149.171 31.1393 150.245C37.0607 151.317 44.7139 151.046 53.631 149.427C71.4472 146.192 93.8637 137.655 116.6 124.528C139.337 111.401 157.938 96.2561 169.648 82.4444C175.509 75.5316 179.57 69.0389 181.602 63.3749C183.638 57.7 183.553 53.13 181.594 49.7372C179.635 46.3444 175.72 43.9852 169.787 42.9111C163.866 41.8392 156.213 42.1096 147.296 43.7288ZM183.326 48.7372C173.861 32.3442 129.09 40.4741 83.3263 66.8958C37.5627 93.3174 8.13636 128.026 17.6008 144.419C27.0653 160.811 71.8366 152.682 117.6 126.26C163.364 99.8383 192.79 65.1301 183.326 48.7372Z" fill="black"/>
<path d="M93.2544 21.1943C93.2544 27.8983 87.8197 33.333 81.1157 33.333C74.4117 33.333 68.9771 27.8983 68.9771 21.1943C68.9771 14.4903 74.4117 9.05566 81.1157 9.05566C87.8197 9.05566 93.2544 14.4903 93.2544 21.1943Z" fill="#CEEAA4"/>
<path fill-rule="evenodd" clip-rule="evenodd" d="M81.1157 31.333C86.7152 31.333 91.2544 26.7938 91.2544 21.1943C91.2544 15.5949 86.7152 11.0557 81.1157 11.0557C75.5163 11.0557 70.977 15.5949 70.977 21.1943C70.977 26.7938 75.5163 31.333 81.1157 31.333ZM81.1157 33.333C87.8197 33.333 93.2544 27.8983 93.2544 21.1943C93.2544 14.4903 87.8197 9.05566 81.1157 9.05566C74.4117 9.05566 68.9771 14.4903 68.9771 21.1943C68.9771 27.8983 74.4117 33.333 81.1157 33.333Z" fill="black"/>
<path d="M40.4487 112.591C40.4487 119.295 35.0141 124.729 28.3101 124.729C21.6061 124.729 16.1714 119.295 16.1714 112.591C16.1714 105.887 21.6061 100.452 28.3101 100.452C35.0141 100.452 40.4487 105.887 40.4487 112.591Z" fill="#CEEAA4"/>
<path fill-rule="evenodd" clip-rule="evenodd" d="M28.3101 122.73C33.9095 122.73 38.4487 118.19 38.4487 112.591C38.4487 106.991 33.9095 102.452 28.3101 102.452C22.7106 102.452 18.1714 106.991 18.1714 112.591C18.1714 118.19 22.7106 122.73 28.3101 122.73ZM28.3101 124.729C35.0141 124.729 40.4487 119.295 40.4487 112.591C40.4487 105.887 35.0141 100.452 28.3101 100.452C21.6061 100.452 16.1714 105.887 16.1714 112.591C16.1714 119.295 21.6061 124.729 28.3101 124.729Z" fill="black"/>
<path d="M183.258 112.591C183.258 119.295 177.824 124.729 171.12 124.729C164.416 124.729 158.981 119.295 158.981 112.591C158.981 105.887 164.416 100.452 171.12 100.452C177.824 100.452 183.258 105.887 183.258 112.591Z" fill="#CEEAA4"/>
<path fill-rule="evenodd" clip-rule="evenodd" d="M171.12 122.73C176.719 122.73 181.258 118.19 181.258 112.591C181.258 106.991 176.719 102.452 171.12 102.452C165.52 102.452 160.981 106.991 160.981 112.591C160.981 118.19 165.52 122.73 171.12 122.73ZM171.12 124.729C177.824 124.729 183.258 119.295 183.258 112.591C183.258 105.887 177.824 100.452 171.12 100.452C164.416 100.452 158.981 105.887 158.981 112.591C158.981 119.295 164.416 124.729 171.12 124.729Z" fill="black"/>
</svg>
