<svg width="311" height="587" viewBox="0 0 311 587" fill="none" xmlns="http://www.w3.org/2000/svg">
<path d="M111.385 520.375C97.1603 527.341 98.4991 540.708 98.3736 549.683C98.2271 559.243 79.9857 564.242 79.9857 564.242C84.8389 548.95 81.3873 533.198 81.3873 533.198L111.385 520.375Z" fill="#EFBF9A"/>
<path d="M126.468 555.584L123.225 557.342L116.427 541.799C116.071 540.983 115.276 540.502 114.46 540.502C114.188 540.502 113.896 540.565 113.624 540.669C112.933 540.962 112.431 541.61 112.348 542.364L109.356 564.893L70.0073 586.315C68.8359 583.511 76.1366 576.483 80.0067 564.245C80.0067 564.245 98.269 559.245 98.3945 549.685C98.52 540.711 97.2021 527.323 111.406 520.378L114.398 519.102C130.715 526.612 126.468 555.584 126.468 555.584Z" fill="#FFCF2D"/>
<path d="M114.377 408.742V519.111L81.8265 533.232L57.4348 422.423C68.3546 422.842 86.5542 420.541 114.377 408.742Z" fill="white" stroke="#448DF7" stroke-width="1.04258" stroke-miterlimit="10"/>
<path d="M90.4453 418.441L96.8675 526.656" stroke="#448DF7" stroke-width="1.04258" stroke-miterlimit="10"/>
<path d="M114.377 408.742V437.631L58.9829 429.619L57.4348 422.423C68.3546 422.842 86.5542 420.541 114.377 408.742Z" fill="#448DF7"/>
<path d="M278.424 333.854L257.379 338.289C256.668 338.435 255.957 338.205 255.455 337.682C255.099 337.285 254.911 336.804 254.911 336.302C254.911 335.758 255.12 335.214 255.559 334.816L267.274 323.834L264.68 321.512C264.68 321.512 237.485 326.846 235.937 343.811L238.008 346.071C248.698 356.572 260.224 351.154 268.278 348.435C275.976 345.841 285.16 357.785 286.98 360.254C287.001 360.254 287.043 360.254 287.063 360.254C299.197 359.856 307.794 364.166 309.907 362.22L278.424 333.854Z" fill="#FFCF2D"/>
<path d="M238.029 346.074C248.719 356.576 260.245 351.158 268.299 348.438C276.876 345.551 287.105 360.257 287.105 360.257C271.918 360.739 258.969 368.792 258.969 368.792L238.029 346.074Z" fill="#EFBF9A"/>
<path d="M108.08 409.682C108.08 409.682 113.372 445.433 153.976 444.764C194.58 444.094 258.53 368.576 258.53 368.576L236.042 343.934L108.08 409.682Z" fill="white" stroke="#448DF7" stroke-width="1.04258" stroke-miterlimit="10"/>
<path d="M131.488 399.978C132.827 409.391 139.145 418.261 158.411 417.947C187.029 417.487 227.465 379.937 248.844 357.805" stroke="#448DF7" stroke-width="1.04258" stroke-miterlimit="10"/>
<path d="M285.306 270.997C281.604 269.596 272.797 274.407 266.165 282.775C259.032 291.749 256.145 301.288 259.283 303.777L158.809 250.35C153.872 247.735 148.182 252.212 149.583 257.609L180 372.831C76.9732 439.689 43.9419 419.648 43.9419 419.648V41.0128C43.9419 41.0337 43.9419 41.0337 43.9628 41.0546C44.8414 43.293 54.276 41.7241 65.0493 37.5193C74.9649 33.6702 82.5376 28.9425 83.0188 26.474L83.0397 26.4531V145.755C83.0397 153.244 87.0771 160.126 93.6038 163.787L285.306 270.997Z" fill="#FE5244"/>
<path d="M285.306 270.997C281.604 269.596 272.797 274.407 266.165 282.775C259.032 291.749 256.145 301.288 259.283 303.777L158.809 250.35C153.872 247.735 148.182 252.212 149.583 257.609L180 373.292C153.809 390.299 132.137 401.219 114.376 408.749C86.5541 420.527 68.3545 422.849 57.4347 422.43C47.9165 422.075 43.9419 419.648 43.9419 419.648V41.0128C43.9419 41.0337 43.9419 41.0337 43.9628 41.0546C44.8414 43.293 54.276 41.7241 65.0493 37.5193C74.9649 33.6702 82.5376 28.9425 83.0188 26.474L83.0397 26.4531V145.755C83.0397 153.244 87.0771 160.126 93.6038 163.787L285.306 270.997Z" fill="#FE5244"/>
<path d="M141.195 241.055L259.283 305.109" stroke="white" stroke-width="1.2511" stroke-miterlimit="10" stroke-linecap="round"/>
<path d="M96.407 165.328L83.1652 242.289L150.755 195.744L96.407 165.328Z" fill="#FFCF2D"/>
<path d="M96.407 165.328L83.1652 242.289L150.755 195.744" stroke="white" stroke-width="1.2511" stroke-miterlimit="10" stroke-linecap="round"/>
<path d="M95.863 16.7746L8.60949 34.6604C5.38795 35.3298 2.06179 32.4639 1.2041 28.2592C0.346421 24.0544 2.27098 20.1216 5.49252 19.4522L92.746 1.56641L95.863 16.7746Z" fill="white" stroke="#3FB1B5" stroke-width="1.04258" stroke-miterlimit="10" stroke-linecap="round"/>
<path d="M95.8318 16.7855C99.0573 16.1243 100.974 12.1845 100.114 7.98569C99.253 3.78686 95.9405 0.919014 92.7149 1.58019C89.4894 2.24136 87.5724 6.18117 88.433 10.38C89.2937 14.5788 92.6062 17.4467 95.8318 16.7855Z" fill="white" stroke="#3FB1B5" stroke-width="1.04258" stroke-miterlimit="10" stroke-linecap="round"/>
<path d="M46.0757 24.3911C46.0757 24.3911 17.8559 56.1044 20.931 63.0914C24.9474 67.0869 28.2108 68.8441 27.7297 70.3294C27.2067 71.9401 20.4498 81.6675 20.4498 81.6675L19.7804 74.4504L13.3164 76.5842C13.3164 76.5842 20.136 66.6267 20.5753 63.5725C17.7722 61.4388 12.0613 57.0039 12.2495 53.9079C12.4587 50.6236 22.4581 38.9507 29.717 30.8969L18.7763 34.5159L16.6217 24.412L36.3065 20.793L46.0757 24.3911Z" fill="#FE5244"/>
<path d="M42.2474 25.7766C45.5286 25.7766 48.1884 23.1167 48.1884 19.8356C48.1884 16.5544 45.5286 13.8945 42.2474 13.8945C38.9663 13.8945 36.3064 16.5544 36.3064 19.8356C36.3064 23.1167 38.9663 25.7766 42.2474 25.7766Z" fill="white" stroke="#FE5244" stroke-width="1.04258" stroke-miterlimit="10"/>
<path d="M83.0187 26.4599C82.5376 28.9284 74.9649 33.6561 65.0492 37.5052C54.2759 41.689 44.8414 43.2789 43.9628 41.0405C43.9628 41.0196 43.9628 41.0196 43.9418 40.9987C43.1887 38.7394 51.1799 33.5724 61.8904 29.4095C72.6638 25.2257 82.0983 23.6359 82.9769 25.8742C83.0396 26.0415 83.0605 26.2298 83.0187 26.4599Z" fill="#448DF7"/>
<path d="M75.7597 8.88713L74.6091 25.4969L74.0652 33.4461C71.4503 34.8268 68.3752 36.2075 65.0491 37.5044C59.401 39.7009 54.1293 41.1653 50.2593 41.7719V26.5847L66.1369 23.3213C66.1369 23.3213 67.0155 17.6522 68.689 12.9036C70.3416 8.13404 75.7597 8.88713 75.7597 8.88713Z" fill="#EFBF9A"/>
<path d="M66.5762 22.6406C66.3461 23.582 59.4429 25.7785 59.4429 30.7991" stroke="#3D3D3D" stroke-width="0.834064" stroke-miterlimit="10" stroke-linecap="round"/>
<path d="M74.6091 25.5078L74.0652 33.4571C71.4503 34.8377 68.3752 36.2184 65.0491 37.5154C59.401 39.7119 54.1293 41.1762 50.2593 41.7829V34.9214C53.3553 33.1014 57.3927 31.1769 61.8903 29.4197C66.5762 27.5788 71.011 26.24 74.6091 25.5078Z" fill="#3D3D3D"/>
<path d="M64.2127 17.1915L46.4941 21.2498C45.5528 21.459 44.6742 20.7059 44.6742 19.66V8.90756C44.6742 7.46414 45.5528 6.20899 46.8289 5.79061L64.3381 0.079704C65.4468 -0.27592 66.5556 0.60268 66.5556 1.83691V14.0955C66.5347 15.5807 65.5724 16.8777 64.2127 17.1915Z" fill="#EFBF9A"/>
<path d="M50.9497 19.5738C49.9875 19.783 49.067 19.0508 49.067 18.0467V7.73362C49.067 6.35296 49.9666 5.13965 51.2845 4.74219" stroke="#3D3D3D" stroke-width="0.834064" stroke-miterlimit="10" stroke-linecap="round"/>
<path d="M56.054 18.4702C55.0917 18.6793 54.1713 17.9263 54.1713 16.9012V6.27433C54.1713 4.85183 55.0708 3.59668 56.3887 3.19922" stroke="#3D3D3D" stroke-width="0.834064" stroke-miterlimit="10" stroke-linecap="round"/>
<path d="M61.7649 17.2588C60.8026 17.4679 59.8822 16.6939 59.8822 15.648V4.64454C59.8822 3.1802 60.7817 1.88323 62.0996 1.46484" stroke="#3D3D3D" stroke-width="0.834064" stroke-miterlimit="10" stroke-linecap="round"/>
<path d="M277.524 291.786C270.391 300.781 262.4 306.241 259.262 303.752C256.124 301.262 259.011 291.744 266.144 282.749C272.796 274.381 281.582 269.57 285.285 270.972L286.017 271.39C289.176 273.9 284.658 282.812 277.524 291.786Z" fill="#448DF7"/>
<path d="M309.802 306.909L305.054 309.419C303.171 310.423 300.828 309.712 299.824 307.829L294.824 298.541L287.252 295.947C288.088 296.261 291.352 297.935 290.327 304.022L272.545 297.391L266.437 295.11L260.642 291.408C262.002 288.646 263.864 285.676 266.186 282.768C268.131 280.321 270.244 278.187 272.357 276.43L278.403 280.655L284.595 281.325L294.657 282.392C296.268 282.559 297.816 283.103 299.175 283.961L307.208 289.671C308.38 290.508 309.154 291.763 309.342 293.186L310.974 304.608C311.12 305.549 310.639 306.469 309.802 306.909Z" fill="#EFBF9A"/>
<path d="M298.109 288.309L305.075 293.266C306.079 293.978 306.748 295.086 306.936 296.321L308.359 305.546C308.464 306.362 308.066 307.157 307.334 307.533" stroke="#3D3D3D" stroke-width="0.834064" stroke-miterlimit="10" stroke-linecap="round"/>
<path d="M293.799 289.965L300.765 294.923C301.769 295.634 302.439 296.743 302.627 297.977L304.049 307.202C304.154 308.018 303.756 308.813 303.024 309.189" stroke="#3D3D3D" stroke-width="0.834064" stroke-miterlimit="10" stroke-linecap="round"/>
<path d="M287.252 295.922L282.189 294.207" stroke="#3D3D3D" stroke-width="0.834064" stroke-miterlimit="10" stroke-linecap="round"/>
<path d="M284.595 281.325C282.9 284.525 280.432 288.165 277.545 291.805C275.892 293.876 274.219 295.759 272.545 297.391L266.437 295.11L260.642 291.408C262.002 288.646 263.864 285.676 266.186 282.768C268.131 280.321 270.244 278.187 272.357 276.43L278.403 280.655L284.595 281.325Z" fill="#3D3D3D"/>
<path d="M101.929 109.473L146.675 129.325L162.637 176.016L130.212 152.838L115.088 134.366L101.929 109.473Z" fill="#FE5244"/>
<path d="M115.088 134.365C115.088 134.365 129.731 136.875 135.63 153.192L138.747 150.054C138.747 150.054 133.078 134.177 118.1 130.098L115.088 134.365Z" fill="#448DF7"/>
<path d="M202.362 154.636C197.341 151.791 192.697 150.222 191.212 150.787C191.317 150.536 191.379 150.243 191.358 149.95C191.275 149.03 190.522 148.34 189.622 148.34C189.58 148.34 189.538 148.34 189.476 148.34C188.513 148.423 187.802 149.26 187.865 150.222C187.865 150.285 187.886 150.348 187.886 150.39L182.572 153.8C181.38 154.574 179.916 154.615 178.661 153.925C177.405 153.235 176.673 151.98 176.673 150.557V142.922C176.673 139.596 175.021 136.52 172.238 134.68C169.456 132.839 165.963 132.546 162.908 133.843L152.784 138.361L148.935 127.086L103.958 107.15C103.687 107.025 103.352 107.15 103.226 107.443C103.101 107.715 103.226 108.05 103.519 108.175L148.035 127.923L163.913 174.384C163.996 174.614 164.205 174.761 164.436 174.761C164.498 174.761 164.561 174.74 164.624 174.74C164.917 174.635 165.063 174.321 164.979 174.028L153.16 139.428L163.369 134.868C166.088 133.696 169.184 133.968 171.632 135.6C174.1 137.232 175.564 139.951 175.564 142.922V150.557C175.564 152.398 176.527 154.03 178.138 154.908C178.891 155.327 179.706 155.536 180.522 155.536C181.443 155.536 182.363 155.264 183.179 154.741L188.451 151.373C188.764 151.666 189.183 151.833 189.622 151.833C189.664 151.833 189.727 151.833 189.769 151.833C190.145 151.812 190.48 151.666 190.731 151.436C190.731 152.921 194.538 156.247 199.768 159.218C200.898 159.866 202.027 160.452 203.094 160.954C203.743 160.41 204.286 159.762 204.726 158.988C205.165 158.234 205.437 157.419 205.562 156.582C204.558 155.954 203.491 155.285 202.362 154.636ZM189.664 150.955C189.183 150.996 188.785 150.641 188.744 150.181C188.702 149.72 189.057 149.302 189.518 149.26C189.978 149.218 190.396 149.574 190.438 150.034C190.48 150.494 190.124 150.913 189.664 150.955Z" fill="#FFCF2D"/>
<path d="M112.18 161.887L104.44 204.938L130.819 184.605V157.766L112.18 161.887Z" fill="#EFBF9A"/>
<path d="M112.18 161.887L111.218 167.284L122.89 190.713L130.819 184.605V157.766L112.18 161.887Z" fill="#3D3D3D"/>
<path d="M115.527 134.806C115.527 134.806 102.327 131.521 98.206 139.178C94.0849 146.834 106.134 148.947 106.636 146.269C106.866 145.098 84.9432 145.119 88.625 161.708C92.4532 178.987 109.711 173.046 109.711 173.046L111.72 161.875L115.527 134.806Z" fill="white" stroke="#448DF7" stroke-width="0.834064" stroke-miterlimit="10"/>
<path d="M130.61 159.569C130.61 159.569 110.904 185.257 128.225 196.177C142.115 204.921 145.692 192.6 141.969 190.905C137.931 189.064 128.664 223.79 157.198 223.686C185.794 223.581 177.05 187.872 162.637 176.032C155.754 170.384 132.785 154.59 132.785 154.59L130.61 159.569Z" fill="white" stroke="#448DF7" stroke-width="0.834064" stroke-miterlimit="10"/>
<path d="M130.024 153.133L131.509 154.075C132.953 154.995 133.371 156.899 132.471 158.342L132.179 158.781C131.258 160.225 129.355 160.664 127.911 159.744L126.321 158.74C124.564 159.995 114 167.044 107.473 160.036C101.135 153.238 115.778 133.344 115.778 133.344C128.204 137.235 133.057 148.28 133.057 148.28L130.024 153.133Z" fill="#EFBF9A"/>
<path d="M111.699 137.855C111.699 137.855 115.129 139.132 114.795 142.081C114.46 145.031 111.364 149.675 112.096 150.47C112.828 151.265 113.812 151.411 113.812 151.411" stroke="#3D3D3D" stroke-width="0.834064" stroke-miterlimit="10" stroke-linecap="round"/>
<path d="M110.862 153.191C110.862 153.191 113.414 154.614 116.887 154.07" stroke="#3D3D3D" stroke-width="0.834064" stroke-miterlimit="10" stroke-linecap="round"/>
<path d="M121.802 148.998C122.098 148.221 121.997 147.461 121.576 147.3C121.155 147.14 120.573 147.64 120.277 148.417C119.981 149.194 120.082 149.954 120.503 150.115C120.924 150.275 121.505 149.775 121.802 148.998Z" fill="#3D3D3D"/>
<path d="M112.143 144.569C112.389 143.921 112.301 143.286 111.945 143.15C111.588 143.014 111.099 143.429 110.852 144.077C110.606 144.725 110.694 145.36 111.05 145.496C111.407 145.632 111.896 145.217 112.143 144.569Z" fill="#3D3D3D"/>
<path d="M128.936 156.72C129.522 155.8 130.735 155.528 131.656 156.114" stroke="#3D3D3D" stroke-width="0.834064" stroke-miterlimit="10" stroke-linecap="round"/>
<path d="M121.217 143.477C121.217 143.477 123.769 144.167 125.087 147.2" stroke="#3D3D3D" stroke-width="0.834064" stroke-miterlimit="10" stroke-linecap="round"/>
<path d="M125.024 138.402C125.024 138.402 122.242 147.628 130.212 153.924C134.898 157.627 135.17 153.171 135.17 153.171C135.17 153.171 134.563 144.113 125.024 138.402Z" fill="white" stroke="#448DF7" stroke-width="0.834064" stroke-miterlimit="10"/>
</svg>
