<svg width="101" height="22" viewBox="0 0 101 22" fill="none" xmlns="http://www.w3.org/2000/svg">
<path fill-rule="evenodd" clip-rule="evenodd" d="M6.45011 9.74777H17.4676V13.7249H6.45011L6.45011 20.5677H1.78124L1.78124 2.04043L17.9123 2.04043V6.01761L6.45011 6.01761V9.74777ZM7.4794 7.0469L18.9416 7.0469V1.01114L0.751953 1.01114L0.751953 21.597H7.4794L7.4794 14.7542H18.4969V8.71847H7.4794V7.0469ZM28.9964 10.1924L34.5052 10.1924C35.378 10.1924 36.0697 9.9948 36.5802 9.59955C37.0908 9.18783 37.346 8.61966 37.346 7.89504C37.346 7.17042 37.0908 6.61048 36.5802 6.21524C36.0697 5.80352 35.378 5.59766 34.5052 5.59766H28.9964V10.1924ZM30.0257 6.62695V9.16313L34.5052 9.16313C35.2225 9.16313 35.6655 9.00247 35.9421 8.79186C36.178 8.59844 36.3167 8.34054 36.3167 7.89504C36.3167 7.44442 36.1757 7.20375 35.9501 7.02912L35.9421 7.02287L35.9341 7.01645C35.6593 6.7948 35.2209 6.62695 34.5052 6.62695H30.0257ZM28.9964 13.7002H31.9399L37.2225 20.5677H42.6325L37.0884 13.5171C37.4644 13.442 37.8236 13.3438 38.1661 13.2224C38.3679 13.1509 38.5639 13.0714 38.7541 12.9839C39.7916 12.4898 40.5986 11.8063 41.175 10.9335C41.7514 10.0607 42.0396 9.04785 42.0396 7.89504C42.0396 6.72577 41.7514 5.70471 41.175 4.83187C40.5986 3.95903 39.7916 3.27558 38.7541 2.78152C37.7166 2.28746 36.5061 2.04043 35.1228 2.04043H24.3276V20.5677H28.9964V13.7002ZM30.0257 14.7295V21.597H23.2983V1.01114L29.6942 1.01114L30.0257 0.648438V1.01114H35.1228C36.6285 1.01114 37.9956 1.28027 39.1966 1.85221C40.3861 2.41863 41.3442 3.2203 42.0339 4.26467C42.7343 5.32523 43.0689 6.54871 43.0689 7.89504C43.0689 9.22811 42.7327 10.4426 42.0339 11.5007C41.3442 12.5451 40.3861 13.3467 39.1966 13.9132L39.1845 13.9189C39.0689 13.9722 38.9516 14.0226 38.8329 14.0704L44.7512 21.597H36.7157L31.4331 14.7295H30.0257ZM65.3966 8.54555V14.0626H54.7132L54.4436 15.7341H66.187V21.597L47.0108 21.597L48.6027 11.3041L47.0108 1.01114L66.0635 1.01114V6.87398H54.4436L54.7132 8.54555H65.3966ZM53.8366 9.57485H64.3673V13.0333H53.8366L53.235 16.7634L65.1578 16.7634V20.5677L48.2115 20.5677L49.6443 11.3041L48.2115 2.04043L65.0342 2.04043V5.84469H53.235L53.8366 9.57485ZM88.546 8.54555V14.0626H77.8626L77.593 15.7341H89.3365V21.597H70.1602L71.7522 11.3041L70.1602 1.01114L89.2129 1.01114V6.87398L77.593 6.87398L77.8626 8.54555L88.546 8.54555ZM76.986 9.57485H87.5167V13.0333H76.986L76.3844 16.7634H88.3072V20.5677H71.3609L72.7937 11.3041L71.3609 2.04043L88.1837 2.04043V5.84469L76.3844 5.84469L76.986 9.57485ZM93.6637 1.01114H100.621L99.726 15.273H98.8356C99.1499 15.4199 99.4423 15.6149 99.7076 15.8619C100.419 16.5239 100.752 17.3937 100.752 18.3691C100.752 19.3447 100.419 20.2143 99.7212 20.8882L99.7145 20.8947L99.7076 20.9011C99.005 21.5553 98.1117 21.844 97.1288 21.844C96.146 21.844 95.2527 21.5553 94.55 20.9011L94.5432 20.8947L94.5365 20.8882C93.8385 20.2143 93.5057 19.3447 93.5057 18.3691C93.5057 17.3937 93.839 16.5239 94.55 15.8619C94.8153 15.6149 95.1078 15.4199 95.4221 15.273H94.5298L93.6637 1.01114ZM94.7574 2.04043L95.4984 14.2437L98.7592 14.2437L99.525 2.04043H94.7574ZM95.2514 20.1477C95.729 20.5924 96.3548 20.8147 97.1288 20.8147C97.9029 20.8147 98.5287 20.5924 99.0063 20.1477C99.4839 19.6866 99.7227 19.0937 99.7227 18.3691C99.7227 17.6445 99.4839 17.0599 99.0063 16.6152C98.5287 16.1705 97.9029 15.9482 97.1288 15.9482C96.3548 15.9482 95.729 16.1705 95.2514 16.6152C94.7738 17.0599 94.535 17.6445 94.535 18.3691C94.535 19.0937 94.7738 19.6866 95.2514 20.1477Z" fill="black"/>
</svg>
