<svg width="100" height="35" viewBox="0 0 100 35" fill="none" xmlns="http://www.w3.org/2000/svg">
<path d="M17.4837 16.064H29.9497V19.399H17.4837V16.064ZM30.3407 8.75V12.108H17.5297L19.5077 10.107V26H15.5977V8.75H30.3407ZM35.674 16.409H42.321C43.195 16.409 43.885 16.2097 44.391 15.811C44.9123 15.397 45.173 14.8297 45.173 14.109C45.173 13.3883 44.9123 12.8287 44.391 12.43C43.885 12.0313 43.195 11.832 42.321 11.832H35.099L36.87 9.831V26H32.96V8.75H42.781C44.0383 8.75 45.1423 8.98 46.093 9.44C47.0436 9.88467 47.7873 10.5057 48.324 11.303C48.8606 12.1003 49.129 13.0357 49.129 14.109C49.129 15.167 48.8606 16.0947 48.324 16.892C47.7873 17.6893 47.0436 18.318 46.093 18.778C45.1423 19.2227 44.0383 19.445 42.781 19.445H35.674V16.409ZM38.664 17.927H43.126L49.635 26H45.058L38.664 17.927ZM66.3118 15.88V18.87H53.9608V15.88H66.3118ZM56.5828 17.375L55.4328 24.689L53.7308 22.757H67.0248V26H51.4998L52.8338 17.375L51.4998 8.75H66.9098V11.993H53.7308L55.4328 10.061L56.5828 17.375ZM84.2581 15.88V18.87H71.9071V15.88H84.2581ZM74.5291 17.375L73.3791 24.689L71.6771 22.757H84.9711V26H69.4461L70.7801 17.375L69.4461 8.75H84.8561V11.993H71.6771L73.3791 10.061L74.5291 17.375Z" fill="#448DF7"/>
<rect x="1.75" y="1.75" width="96.5" height="31.5" rx="15.75" stroke="#448DF7" stroke-width="3.5"/>
</svg>
