<svg width="65" height="65" viewBox="0 0 65 65" fill="none" xmlns="http://www.w3.org/2000/svg">
<path d="M51.2253 38.5944C51.2253 30.1038 51.318 21.2475 51.318 12.7569C51.318 10.1975 49.2461 8.12565 46.6868 8.12565C43.1638 8.12565 41.6562 11.0614 41.8308 14.997L39.7522 7.57026C39.2444 5.84049 37.0703 3.71397 34.071 4.39642C31.6132 5.06673 30.1044 7.59945 30.7544 10.0776L32.2937 16.2507L26.5332 6.99896C25.2535 4.7849 22.0826 4.04638 19.5825 5.49139C17.3684 6.77108 16.5991 10.1569 17.9321 12.3945L25.5017 24.7883C19.7729 26.6926 15.5361 30.7226 13.8855 35.4206C12.824 38.4417 15.4148 42.0575 18.5646 42.0575C22.4916 42.0575 23.1774 38.3185 25.5493 36.2775C26.9509 35.0587 28.9022 34.344 30.9131 34.4049C34.8537 34.5471 38.2523 37.7007 38.4351 41.6617C38.6382 46.0492 35.081 49.9884 30.7544 49.9884C27.7076 49.9884 24.1924 47.7619 23.1211 44.9262C22.4356 43.1114 20.2867 42.0539 18.3446 42.0539C15.2367 42.0539 12.9173 45.2594 13.8379 48.4333C16.316 55.8473 23.4074 60.6411 31.6745 60.6208C41.8105 60.5598 51.2253 51.5119 51.2253 38.5944Z" fill="#EFBF9A"/>
<path d="M33.3247 4.66797C31.3183 5.60043 30.1731 7.8602 30.7544 10.0763L32.1831 15.8058L35.5469 21.3275L32.8174 9.29869C32.5282 8.13291 32.307 5.82312 33.3247 4.66797Z" fill="#BB8E7A"/>
<path d="M18.7536 6.12832C17.1968 7.67839 16.7822 10.463 17.9321 12.3932L25.492 24.7712C27.3972 24.2157 29.459 24.2157 31.77 24.2157C29.6436 23.7396 27.233 23.1163 25.8052 21.3275C24.3774 19.5387 19.4557 11.0126 19.4557 11.0126C18.7196 9.9041 17.7765 7.65867 18.7536 6.12832Z" fill="#BB8E7A"/>
<path d="M41.8192 14.6168C41.7684 11.6077 42.7416 9.24136 44.8959 8.42861C44.0769 9.43704 43.8484 11.1455 43.8623 12.1869L43.4815 21.3275L41.8192 14.6168Z" fill="#BB8E7A"/>
</svg>
