<svg width="65" height="65" viewBox="0 0 65 65" fill="none" xmlns="http://www.w3.org/2000/svg">
<path d="M32.4977 60.933C51.4583 60.933 60.933 48.2021 60.933 32.4977C60.933 16.7934 51.4583 4.0625 32.4977 4.0625C13.5371 4.0625 4.0625 16.7934 4.0625 32.4977C4.0625 48.2021 13.5371 60.933 32.4977 60.933Z" fill="#FFCF2D"/>
<path d="M11.6337 31.3513L17.8292 26.5326C18.7612 25.8078 19.9624 25.5242 21.1201 25.7557L28.5339 27.2385C28.9293 27.3176 29.2547 26.9264 29.105 26.552L26.2385 19.3859C25.712 18.0695 25.9098 16.5739 26.7605 15.4396L30.3878 10.6032C30.8102 10.0401 30.3653 9.24284 29.6642 9.30657L22.5701 9.95149C21.1669 10.0791 19.7978 9.4704 18.9523 8.34317L16.1814 4.64853C15.4229 3.6372 13.8252 3.99959 13.5773 5.23921L12.6191 10.0301C12.3498 11.3763 11.4189 12.4954 10.1443 13.0053L5.00638 15.0604C3.81476 15.5371 3.71042 17.1833 4.83232 17.8066L8.85949 20.0439C10.2652 20.8249 11.078 22.3615 10.9324 23.963L10.3257 30.6364C10.2614 31.3443 11.0727 31.7877 11.6337 31.3513Z" fill="#FE5244"/>
<path d="M53.3663 31.3513L47.1708 26.5326C46.2388 25.8078 45.0376 25.5242 43.8799 25.7557L36.4661 27.2385C36.0707 27.3176 35.7453 26.9264 35.895 26.552L38.7615 19.3859C39.288 18.0695 39.0902 16.5739 38.2395 15.4396L34.6122 10.6032C34.1899 10.0401 34.6347 9.24284 35.3358 9.30657L42.4299 9.95149C43.8331 10.0791 45.2023 9.4704 46.0477 8.34317L48.8187 4.64853C49.5772 3.6372 51.1748 3.99959 51.4227 5.23921L52.3809 10.0301C52.6502 11.3763 53.5811 12.4954 54.8558 13.0053L59.9936 15.0604C61.1852 15.5371 61.2896 17.1833 60.1677 17.8066L56.1405 20.0439C54.7348 20.8249 53.922 22.3615 54.0676 23.963L54.6743 30.6364C54.7386 31.3443 53.9273 31.7877 53.3663 31.3513Z" fill="#FE5244"/>
<path d="M32.5 52.8125C14.2188 52.8125 14.2188 34.5312 14.2188 34.5312H50.7812C50.7812 34.5312 50.7812 52.8125 32.5 52.8125Z" fill="#FE5244"/>
<path d="M16.25 35.5469V34.5312H48.75V35.5469C48.75 36.6687 47.8406 37.5781 46.7188 37.5781H18.2812C17.1594 37.5781 16.25 36.6687 16.25 35.5469Z" fill="white"/>
</svg>
