<svg width="65" height="65" viewBox="0 0 65 65" fill="none" xmlns="http://www.w3.org/2000/svg">
<path d="M32.4977 60.933C51.4583 60.933 60.933 48.2021 60.933 32.4977C60.933 16.7934 51.4583 4.0625 32.4977 4.0625C13.5371 4.0625 4.0625 16.7934 4.0625 32.4977C4.0625 48.2021 13.5371 60.933 32.4977 60.933Z" fill="#FFCF2D"/>
<path d="M18.2438 22.7315C18.3415 22.2292 18.565 21.6135 18.9901 21.1504C19.3543 20.7536 20.0017 20.3125 21.328 20.3125C22.6315 20.3125 23.2954 20.7627 23.6786 21.1835C24.1217 21.6699 24.3352 22.2903 24.4048 22.6913C24.5968 23.7966 25.6484 24.537 26.7537 24.3451C27.8589 24.1531 28.5994 23.1015 28.4074 21.9962C28.247 21.0721 27.7873 19.6613 26.6819 18.4477C25.5166 17.1685 23.7565 16.25 21.328 16.25C18.9224 16.25 17.1695 17.1261 15.9971 18.4034C14.8855 19.6145 14.436 21.0301 14.256 21.956C14.0419 23.0573 14.761 24.1235 15.8622 24.3377C16.9634 24.5518 18.0297 23.8327 18.2438 22.7315Z" fill="#402A32"/>
<path d="M40.588 22.7315C40.6857 22.2292 40.9093 21.6135 41.3343 21.1504C41.6986 20.7536 42.3459 20.3125 43.6723 20.3125C44.9758 20.3125 45.6396 20.7627 46.0229 21.1835C46.466 21.6699 46.6794 22.2903 46.7491 22.6913C46.941 23.7966 47.9926 24.537 49.0979 24.3451C50.2032 24.1531 50.9436 23.1015 50.7517 21.9962C50.5912 21.0721 50.1316 19.6613 49.0261 18.4477C47.8609 17.1685 46.1007 16.25 43.6723 16.25C41.2666 16.25 39.5138 17.1261 38.3414 18.4034C37.2298 19.6145 36.7803 21.0301 36.6002 21.956C36.3861 23.0573 37.1052 24.1235 38.2064 24.3377C39.3076 24.5518 40.3739 23.8327 40.588 22.7315Z" fill="#402A32"/>
<path d="M24.375 30.4688C25.4968 30.4688 26.4062 31.3782 26.4062 32.5C26.4062 33.5291 26.7317 35.118 27.6484 36.3913C28.4906 37.5609 29.912 38.5938 32.5 38.5938C35.088 38.5938 36.5094 37.5609 37.3516 36.3913C38.2683 35.118 38.5938 33.5291 38.5938 32.5C38.5938 31.3782 39.5032 30.4688 40.625 30.4688C41.7468 30.4688 42.6562 31.3782 42.6562 32.5C42.6562 34.1792 42.1692 36.6528 40.6484 38.765C39.0531 40.9807 36.412 42.6562 32.5 42.6562C28.588 42.6562 25.9469 40.9807 24.3516 38.765C22.8308 36.6528 22.3438 34.1792 22.3438 32.5C22.3438 31.3782 23.2532 30.4688 24.375 30.4688Z" fill="#402A32"/>
<path d="M6.09418 2.23581C8.55746 1.50517 11.1721 3.04832 12.1877 4.06395C13.2031 3.04837 16.5916 0.343109 19.8047 3.55619C22.394 6.14552 21.3284 10.1577 19.2972 13.2046C18.1013 14.9984 14.9984 17.819 12.4985 19.7233C11.1901 20.7201 9.371 20.4247 8.26191 19.2101C6.3839 17.1533 4.00702 14.515 2.84397 12.1889C0.812716 8.12643 2.84437 3.19976 6.09418 2.23581Z" fill="#FE5244"/>
<path d="M8.12532 56.8765C5.85418 54.6056 5.07839 50.7827 7.10963 48.7515C9.14085 46.7202 13.2033 47.7359 13.2033 47.7359C13.2033 47.7359 14.2191 45.1968 17.2659 45.7046C21.3284 46.2124 21.8363 50.7827 20.8206 53.8296C20.0446 56.1577 18.1649 58.6408 16.7999 60.2404C15.9222 61.2689 14.4272 61.4165 13.3102 60.6546C11.4322 59.3736 8.76667 57.5178 8.12532 56.8765Z" fill="#FE5244"/>
<path d="M53.8281 37.5796C53.151 36.564 49.7657 33.7202 46.7188 34.7359C42.8647 36.0205 42.6563 40.6265 44.6875 43.6734C45.9575 45.5783 49.5455 49.8353 51.5015 52.1231C52.2256 52.9702 53.4896 53.0633 54.3076 52.3065C56.7532 50.0437 61.4855 45.3501 62.9687 41.6421C64.1003 38.8132 62.9687 34.5327 58.9062 34.5327C55.6562 34.5327 54.1667 36.564 53.8281 37.5796Z" fill="#FE5244"/>
</svg>
