<svg width="250" height="186" viewBox="0 0 250 186" fill="none" xmlns="http://www.w3.org/2000/svg">
<path d="M211.906 106.087L60.8226 144.325L38.8019 56.6108C37.3109 50.6718 40.897 44.644 46.8122 43.147L176.476 10.3312C182.39 8.83418 188.394 12.4349 189.885 18.374L211.906 106.087Z" fill="white" stroke="#448DF7" stroke-width="1.54168" stroke-miterlimit="10"/>
<path d="M199.067 103.262L71.4199 135.567C68.0591 136.418 64.6365 134.365 63.7894 130.991L44.9145 55.8074C44.0672 52.433 46.1118 48.9967 49.4726 48.1461L177.12 15.8406C180.48 14.99 183.903 17.0428 184.75 20.4172L203.63 95.623C204.477 98.9972 202.427 102.411 199.067 103.262Z" fill="#FE5244"/>
<path d="M243.558 119.969C250.287 122.286 250.8 130.027 243.967 131.756L38.146 183.846C32.3877 185.304 28.4561 177.996 33.2044 172.99L243.558 119.969Z" fill="#448DF7" stroke="#448DF7" stroke-width="1.54168" stroke-miterlimit="10"/>
<path d="M242.674 126.609L36.8525 178.699C33.178 179.629 30.6316 175.656 33.2043 172.995L60.8674 144.317L211.48 106.199L243.535 119.979C246.737 121.345 246.169 125.724 242.674 126.609Z" fill="white" stroke="#448DF7" stroke-width="1.54168" stroke-miterlimit="10"/>
<path d="M217.381 126.478L59.0608 166.547C56.2377 167.261 54.2759 164.193 56.2447 162.163L75.0726 140.723L193.376 110.781L218.032 121.385C220.512 122.432 220.07 125.798 217.381 126.478Z" fill="white" stroke="#448DF7" stroke-width="1.54168" stroke-miterlimit="10"/>
<path d="M183.137 113.363L208.978 128.595" stroke="#448DF7" stroke-width="1.54168" stroke-miterlimit="10"/>
<path d="M172.157 116.148L195.535 132.004" stroke="#448DF7" stroke-width="1.54168" stroke-miterlimit="10"/>
<path d="M161.896 118.746L182.853 135.214" stroke="#448DF7" stroke-width="1.54168" stroke-miterlimit="10"/>
<path d="M150.424 121.648L168.94 138.735" stroke="#448DF7" stroke-width="1.54168" stroke-miterlimit="10"/>
<path d="M140.901 124.059L152.561 142.881" stroke="#448DF7" stroke-width="1.54168" stroke-miterlimit="10"/>
<path d="M84.6846 138.281L69.121 163.993" stroke="#448DF7" stroke-width="1.54168" stroke-miterlimit="10"/>
<path d="M95.6637 135.504L82.5646 160.592" stroke="#448DF7" stroke-width="1.54168" stroke-miterlimit="10"/>
<path d="M105.925 132.902L95.2465 157.378" stroke="#448DF7" stroke-width="1.54168" stroke-miterlimit="10"/>
<path d="M117.397 130.008L109.16 153.865" stroke="#448DF7" stroke-width="1.54168" stroke-miterlimit="10"/>
<path d="M126.92 127.594L125.54 149.716" stroke="#448DF7" stroke-width="1.54168" stroke-miterlimit="10"/>
<path d="M138.575 146.684L133.373 125.965" stroke="#448DF7" stroke-width="1.54168" stroke-miterlimit="10"/>
<path d="M65.9019 151.174L205.312 115.891" stroke="#448DF7" stroke-width="1.54168" stroke-miterlimit="10"/>
<path d="M188.446 105.945L75.0941 134.633L73.4903 119.607C72.5029 110.357 77.0473 101.408 85.0523 96.7503L111.233 83.999L132.72 78.5609L161.792 77.3281C171.057 77.5913 179.29 83.3316 182.764 91.9504L188.446 105.945Z" fill="#FFCF2D"/>
<path d="M133.791 95.9151L123.529 89.6839C123.304 89.5492 123.23 89.2568 123.371 89.054C123.505 88.8286 123.796 88.7549 123.997 88.8952L133.418 94.6222L141.743 78.4227C141.854 78.2031 142.14 78.1068 142.359 78.2189C142.577 78.3311 142.674 78.6179 142.562 78.8375L133.791 95.9151Z" fill="white"/>
<path d="M118.599 99.7575L102.813 88.8948C102.611 88.7545 102.538 88.462 102.7 88.2536C102.84 88.0508 103.13 87.977 103.338 88.1398L118.317 98.441L123.907 88.9156C124.041 88.6902 124.31 88.6221 124.535 88.7568C124.759 88.8914 124.827 89.1614 124.693 89.3866L118.599 99.7575Z" fill="white"/>
<path d="M127.691 103.234C126.615 103.505 125.521 102.85 125.25 101.77C124.978 100.69 125.632 99.5913 126.708 99.3195C127.783 99.0469 128.878 99.7033 129.148 100.783C129.42 101.863 128.766 102.961 127.691 103.234ZM126.933 100.219C126.351 100.366 125.999 100.958 126.146 101.543C126.293 102.128 126.882 102.482 127.465 102.333C128.047 102.186 128.399 101.595 128.252 101.01C128.105 100.425 127.516 100.072 126.933 100.219Z" fill="white"/>
<path d="M130.458 114.249C129.382 114.521 128.289 113.866 128.017 112.786C127.746 111.706 128.4 110.607 129.476 110.335C130.55 110.062 131.645 110.719 131.916 111.799C132.187 112.879 131.533 113.978 130.458 114.249ZM129.701 111.234C129.119 111.383 128.767 111.974 128.914 112.559C129.06 113.143 129.649 113.497 130.232 113.349C130.815 113.202 131.166 112.611 131.02 112.025C130.873 111.44 130.284 111.087 129.701 111.234Z" fill="white"/>
<path d="M120.773 122.564L84.1617 131.83L67.0845 105.192L101.053 85.3984L120.773 122.564Z" fill="white" stroke="#448DF7" stroke-width="1.02779" stroke-miterlimit="10"/>
<path d="M79.7067 106.022L79.0122 106.197C77.2421 106.645 75.4466 105.569 75.0005 103.791L72.4646 93.69C72.2838 92.9704 72.7196 92.2382 73.4366 92.0567L76.4613 91.291C77.1783 91.1095 77.9077 91.5474 78.0884 92.2671L80.9914 103.831C81.2567 104.792 80.6702 105.777 79.7067 106.022Z" fill="white"/>
<path d="M79.7067 106.022L79.0122 106.197C77.2421 106.645 75.4466 105.569 75.0005 103.791L72.4646 93.69C72.2838 92.9704 72.7196 92.2382 73.4366 92.0567L76.4613 91.291C77.1783 91.1095 77.9077 91.5474 78.0884 92.2671L80.9914 103.831C81.2567 104.792 80.6702 105.777 79.7067 106.022Z" stroke="#448DF7" stroke-width="1.02779" stroke-miterlimit="10" stroke-linecap="round"/>
<path d="M94.4496 102.29L95.1448 102.114C96.9146 101.666 97.9865 99.8641 97.5405 98.0862L95.0045 87.9857C94.8237 87.2658 94.0944 86.8284 93.3777 87.0098L90.3309 87.781C89.6136 87.9624 89.1779 88.6949 89.3586 89.4147L92.2617 100.978C92.5045 101.945 93.4865 102.534 94.4496 102.29Z" fill="white"/>
<path d="M85.6244 105.768L84.0112 106.176C82.7564 106.494 81.494 105.737 81.1777 104.477L78.1167 92.2842C77.9359 91.5646 78.3716 90.8314 79.0886 90.6499L82.1134 89.8848C82.8304 89.7033 83.5598 90.1408 83.7406 90.8603L86.9315 103.572C87.1744 104.539 86.5879 105.525 85.6244 105.768Z" fill="white"/>
<path d="M91.3831 104.793L90.0396 105.134C88.6277 105.491 87.1969 104.633 86.8411 103.216L83.7348 90.8424C83.5541 90.1227 83.9898 89.3904 84.7068 89.2089L87.7315 88.4434C88.4485 88.2619 89.1779 88.6994 89.3587 89.4192L92.6682 102.602C92.911 103.57 92.3247 104.555 91.3831 104.793Z" fill="white"/>
<path d="M94.4496 102.29L95.1448 102.114C96.9146 101.666 97.9865 99.8641 97.5405 98.0862L95.0045 87.9857C94.8237 87.2658 94.0944 86.8284 93.3777 87.0098L90.3309 87.781C89.6136 87.9624 89.1779 88.6949 89.3586 89.4147L92.2617 100.978C92.5045 101.945 93.4865 102.534 94.4496 102.29Z" stroke="#448DF7" stroke-width="1.02779" stroke-miterlimit="10" stroke-linecap="round"/>
<path d="M85.6244 105.768L84.0112 106.176C82.7564 106.494 81.494 105.737 81.1777 104.477L78.1167 92.2842C77.9359 91.5646 78.3716 90.8314 79.0886 90.6499L82.1134 89.8848C82.8304 89.7033 83.5598 90.1408 83.7406 90.8603L86.9315 103.572C87.1744 104.539 86.5879 105.525 85.6244 105.768Z" stroke="#448DF7" stroke-width="1.02779" stroke-miterlimit="10" stroke-linecap="round"/>
<path d="M91.3831 104.793L90.0396 105.134C88.6277 105.491 87.1969 104.633 86.8411 103.216L83.7348 90.8424C83.5541 90.1227 83.9898 89.3904 84.7068 89.2089L87.7315 88.4434C88.4485 88.2619 89.1779 88.6994 89.3587 89.4192L92.6682 102.602C92.911 103.57 92.3247 104.555 91.3831 104.793Z" stroke="#448DF7" stroke-width="1.02779" stroke-miterlimit="10" stroke-linecap="round"/>
<path d="M129.422 65.3242L133.545 81.7466C134.256 84.5812 130.021 88.1174 124.084 89.6202C118.146 91.1233 112.746 90.0249 112.035 87.1903L107.912 70.768L129.422 65.3242Z" fill="white"/>
<path d="M129.422 65.3281C132.533 77.7236 125.55 83.4147 117.791 84.6847C117.769 84.6904 117.746 84.696 117.724 84.7017C114.284 85.2373 111.007 83.0043 110.16 79.6298L107.94 70.7887L129.427 65.3506L129.422 65.3281Z" fill="#448DF7"/>
<path d="M133.356 59.8303L133.566 60.6627C134.029 62.5075 132.923 64.3665 131.085 64.8315L129.382 65.2624L129.501 65.6392C130.834 70.9484 127.633 76.3283 122.345 77.6666L119.992 78.2619C114.704 79.6002 109.346 76.3865 108.013 71.0773L107.94 70.6892L106.236 71.1202C104.399 71.5852 102.548 70.4747 102.085 68.6299L101.876 67.7975C101.413 65.9529 102.519 64.0938 104.356 63.6289L106.53 63.0788L105.754 58.9446C105.595 58.3147 105.532 57.6846 105.571 57.0768C112.38 57.0523 118.847 51.0133 120.553 49.2656C123.008 49.5534 125.141 51.3105 125.779 53.8526L127.048 57.8621L129.221 57.312C131.041 56.8752 132.893 57.9857 133.356 59.8303Z" fill="white"/>
<path d="M129.362 57.2996L127.031 57.8894L125.763 53.8799C125.124 51.3378 122.991 49.5808 120.536 49.2929C118.825 51.0181 112.357 57.0571 105.554 57.1041C105.516 57.712 105.579 58.342 105.737 58.9719L106.513 63.1061L105.057 63.4747C105.057 63.4747 98.4389 49.7412 100.708 46.3438C102.39 43.8365 123.36 43.0754 126.317 45.5567C127.985 46.977 129.362 57.2996 129.362 57.2996Z" fill="#3D3D3D"/>
<path d="M123.54 57.8393C123.472 57.8563 123.378 57.8565 123.293 57.806C123.265 57.7891 121.509 56.9654 119.179 57.5552C119 57.6005 118.804 57.4828 118.758 57.3028C118.713 57.1229 118.83 56.9257 119.01 56.8803C121.586 56.2282 123.504 57.1304 123.589 57.1808C123.752 57.2593 123.831 57.4786 123.753 57.642C123.73 57.7433 123.629 57.8166 123.54 57.8393Z" fill="#448DF7"/>
<path d="M116.776 66.9702C116.731 66.9815 116.687 66.9929 116.658 66.976C116.462 66.9539 116.322 66.7741 116.35 66.5997C116.559 64.7761 115.877 62.7236 114.54 61.1001C113.743 60.1057 112.799 59.483 112.094 59.4224C110.535 59.2904 108.693 60.4981 108.672 60.5038C108.509 60.6167 108.308 60.5721 108.195 60.4091C108.083 60.2461 108.127 60.0435 108.29 59.9307C108.373 59.8855 110.338 58.5987 112.137 58.7415C113.04 58.8241 114.122 59.531 115.055 60.6827C116.498 62.4467 117.231 64.7017 117.022 66.7165C117.022 66.8121 116.911 66.9362 116.776 66.9702Z" fill="#448DF7"/>
<path d="M122.088 69.4289C122.156 69.6032 122.039 69.8004 121.865 69.8682L121.843 69.8739C121.663 69.9193 121.495 69.8183 121.427 69.6441C121.348 69.4247 121.247 69.2111 121.129 69.0257C120.284 69.7419 119.45 70.1205 118.733 70.302C117.321 70.6593 116.323 70.2898 116.267 70.2562C116.082 70.1834 116.008 69.9866 116.058 69.8065C116.131 69.6207 116.327 69.5471 116.506 69.5974C116.557 69.6086 117.398 69.922 118.563 69.6271C119.191 69.4684 119.919 69.1406 120.685 68.4919C120.495 68.3011 120.325 68.2001 120.325 68.2001C120.157 68.0992 120.123 67.8685 120.23 67.722C120.336 67.5755 120.56 67.5188 120.706 67.6254C120.768 67.6816 121.744 68.3436 122.088 69.4289Z" fill="#448DF7"/>
<path d="M121.684 62.6931C121.988 62.5955 122.076 62.0218 121.883 61.4115C121.689 60.8012 121.285 60.3855 120.981 60.4829C120.677 60.5804 120.588 61.1541 120.782 61.7645C120.977 62.3748 121.38 62.7905 121.684 62.6931Z" fill="#448DF7"/>
<path d="M112.513 64.9174C112.793 64.8277 112.875 64.2999 112.697 63.7384C112.518 63.1769 112.147 62.7945 111.867 62.8841C111.587 62.9738 111.505 63.5016 111.684 64.0632C111.862 64.6246 112.234 65.0071 112.513 64.9174Z" fill="#448DF7"/>
<path d="M106.561 67.759C106.382 67.8043 106.185 67.6866 106.14 67.5065C105.892 66.5168 104.888 65.9335 103.924 66.1774C103.745 66.2227 103.549 66.1049 103.504 65.925C103.458 65.745 103.576 65.5479 103.754 65.5024C105.099 65.1622 106.474 65.9867 106.812 67.3364C106.863 67.539 106.74 67.7136 106.561 67.759Z" fill="#448DF7"/>
<path d="M129.102 62.055C128.923 62.1004 128.726 61.9826 128.681 61.8026C128.342 60.4528 129.163 59.0726 130.507 58.7324C130.686 58.6871 130.883 58.8048 130.928 58.9848C130.973 59.1648 130.856 59.3619 130.677 59.4073C129.691 59.6568 129.11 60.6652 129.353 61.6325C129.404 61.835 129.303 62.0039 129.102 62.055Z" fill="#448DF7"/>
</svg>
