<svg width="45" height="45" viewBox="0 0 45 45" fill="none" xmlns="http://www.w3.org/2000/svg">
<path d="M13.2188 15.7993L8.47306 3.2906C8.34879 2.96304 8.7277 2.67513 9.00998 2.88262L20.1179 11.0476C20.2702 11.1595 20.4837 11.131 20.6013 10.9832L24.768 5.7452C24.9652 5.49728 25.3639 5.6162 25.3931 5.93165L25.9781 12.2489C25.9979 12.4625 26.2027 12.6088 26.4112 12.5581L37.6176 9.83402C37.9552 9.75194 38.1946 10.1573 37.9596 10.4133L31.0305 17.9635C30.8805 18.127 30.9175 18.3867 31.1072 18.5018L41.4349 24.7685C41.7229 24.9433 41.624 25.3839 41.289 25.4188L29.2578 26.672C29.0361 26.6951 28.8916 26.916 28.9593 27.1284L30.9246 33.2971C31.0287 33.624 30.651 33.8912 30.3774 33.6841L24.9735 29.594C24.7895 29.4548 24.5236 29.5275 24.4361 29.7409L19.4152 41.9792C19.2841 42.2989 18.8187 42.2574 18.7462 41.9196L15.5443 26.9985C15.5029 26.8054 15.3106 26.6844 15.1186 26.7304L4.6665 29.2365C4.32075 29.3194 4.08452 28.8953 4.33697 28.645L11.5714 21.4703C11.7514 21.2918 11.689 20.9872 11.4533 20.8938L5.87175 18.6833C5.55374 18.5573 5.58461 18.0975 5.9166 18.0152L12.9747 16.2653C13.1793 16.2145 13.2936 15.9964 13.2188 15.7993Z" fill="#FE5244"/>
<path d="M17.263 21.4111L15.5743 23.1168C15.3329 23.3607 15.5481 23.7705 15.886 23.7102L18.7756 23.1942C18.968 23.1598 19.1515 23.289 19.1841 23.4817L20.1557 29.2358C20.2185 29.6079 20.7352 29.6525 20.8609 29.2968L22.683 24.1432C22.7646 23.9121 23.0517 23.8334 23.2398 23.9905L24.7356 25.2397C24.9645 25.4309 25.3125 25.2681 25.3125 24.9699V22.8806C25.3125 22.6751 25.488 22.5134 25.6928 22.5302L32.0366 23.0502C32.3581 23.0765 32.4637 22.6291 32.1644 22.5089L25.537 19.8473C25.3304 19.7643 25.252 19.5125 25.375 19.3269L26.6242 17.4413C26.7819 17.2034 26.6052 16.8867 26.32 16.8958L24.2457 16.9618C24.0564 16.9678 23.8963 16.8227 23.8838 16.6336L23.6346 12.8756C23.6113 12.5246 23.1441 12.4215 22.9753 12.7301L21.2924 15.8076C21.1883 15.9979 20.9384 16.0495 20.7675 15.916L17.4644 13.3354C17.1943 13.1244 16.8127 13.3852 16.9112 13.7135L18.1666 17.898C18.2274 18.1009 18.0965 18.311 17.8876 18.3458L15.0044 18.8264C14.6819 18.8801 14.6009 19.3064 14.8813 19.4746L17.194 20.8623C17.3895 20.9796 17.4234 21.2491 17.263 21.4111Z" fill="#FFCF2D"/>
</svg>
