<svg width="151" height="12" viewBox="0 0 151 12" fill="none" xmlns="http://www.w3.org/2000/svg">
<path d="M0.516846 0.607252H3.71143L4.40008 4.75829V11.4918H1.2055V4.28006L0.516846 0.607252ZM8.28331 0.320312C9.25252 0.320312 10.0815 0.530735 10.7701 0.951578C11.4588 1.35967 11.9816 1.9463 12.3387 2.71147C12.7085 3.47664 12.8935 4.38846 12.8935 5.44694V11.4918H9.69887V5.92518C9.69887 4.94321 9.48207 4.20355 9.04848 3.70619C8.62764 3.19607 8.00912 2.94102 7.19294 2.94102C6.61907 2.94102 6.12171 3.0813 5.70086 3.36186C5.28002 3.62967 4.95483 4.00588 4.72527 4.49048C4.50848 4.97509 4.40008 5.55534 4.40008 6.23124L3.34797 5.6765C3.4755 4.52874 3.76881 3.55953 4.22791 2.76885C4.68702 1.97818 5.26089 1.37242 5.94954 0.951578C6.65095 0.530735 7.42887 0.320312 8.28331 0.320312ZM16.7576 0.320312C17.7268 0.320312 18.5557 0.530735 19.2444 0.951578C19.9458 1.35967 20.475 1.9463 20.8321 2.71147C21.2019 3.47664 21.3868 4.38846 21.3868 5.44694V11.4918H18.1922V5.92518C18.1922 4.94321 17.9754 4.20355 17.5419 3.70619C17.121 3.19607 16.5025 2.94102 15.6863 2.94102C15.1124 2.94102 14.6151 3.0813 14.1942 3.36186C13.7734 3.62967 13.4482 4.00588 13.2186 4.49048C13.0019 4.97509 12.8935 5.55534 12.8935 6.23124L11.8413 5.6765C11.9689 4.52874 12.2622 3.55953 12.7213 2.76885C13.1804 1.97818 13.7543 1.37242 14.4429 0.951578C15.1443 0.530735 15.9159 0.320312 16.7576 0.320312Z" fill="white"/>
<path d="M28.2473 11.7787C27.2399 11.7787 26.3791 11.5747 25.6649 11.1666C24.9635 10.7457 24.4215 10.1527 24.0389 9.38757C23.6691 8.6224 23.4842 7.71695 23.4842 6.67122V0.607252H26.6787V6.19299C26.6787 7.1622 26.9083 7.90186 27.3674 8.41197C27.8265 8.90933 28.4769 9.15801 29.3186 9.15801C29.9435 9.15801 30.4727 9.03049 30.9063 8.77543C31.3527 8.50762 31.697 8.12504 31.9393 7.62768C32.1816 7.13032 32.3027 6.55006 32.3027 5.88692L33.3357 6.44167C33.2082 7.56391 32.9085 8.52675 32.4366 9.33018C31.9648 10.1209 31.3654 10.7266 30.6385 11.1475C29.9243 11.5683 29.1273 11.7787 28.2473 11.7787ZM32.9723 11.4918L32.3027 7.35987V0.607252H35.4973V7.8381L36.1668 11.4918H32.9723Z" fill="white"/>
<path d="M37.5424 0.607252H40.7369L41.4256 4.75829V11.4918H38.231V4.28006L37.5424 0.607252ZM45.5766 0.320312C46.6096 0.320312 47.4895 0.530735 48.2165 0.951578C48.9434 1.35967 49.4981 1.9463 49.8807 2.71147C50.2633 3.47664 50.4546 4.38846 50.4546 5.44694V11.4918H47.26V5.92518C47.26 4.94321 47.0241 4.20355 46.5522 3.70619C46.0804 3.19607 45.3917 2.94102 44.4863 2.94102C43.8741 2.94102 43.3321 3.0813 42.8603 3.36186C42.4012 3.62967 42.0441 4.00588 41.789 4.49048C41.5467 4.97509 41.4256 5.55534 41.4256 6.23124L40.3735 5.6765C40.501 4.52874 40.8071 3.55953 41.2917 2.76885C41.7763 1.97818 42.3884 1.37242 43.1281 0.951578C43.8677 0.530735 44.6839 0.320312 45.5766 0.320312Z" fill="white"/>
<path d="M70.0904 7.0538C69.9629 7.98476 69.5994 8.80731 69.0001 9.52147C68.4134 10.2356 67.6546 10.7904 66.7237 11.1857C65.7927 11.581 64.7534 11.7787 63.6056 11.7787C62.3048 11.7787 61.1571 11.5428 60.1624 11.0709C59.1804 10.5863 58.4088 9.91043 57.8477 9.04324C57.2993 8.17605 57.0252 7.18133 57.0252 6.05908C57.0252 4.92408 57.2993 3.92936 57.8477 3.07492C58.4088 2.20773 59.1804 1.53183 60.1624 1.04722C61.1571 0.562616 62.3048 0.320312 63.6056 0.320312C64.7534 0.320312 65.7927 0.524358 66.7237 0.932448C67.6546 1.32779 68.4134 1.88253 69.0001 2.59669C69.5994 3.2981 69.9629 4.12065 70.0904 5.06436H66.8958C66.7301 4.3247 66.3475 3.7572 65.7481 3.36186C65.1615 2.95377 64.4473 2.74972 63.6056 2.74972C62.9297 2.74972 62.3367 2.88363 61.8266 3.15144C61.3292 3.40649 60.9467 3.7827 60.6788 4.28006C60.411 4.76467 60.2771 5.35768 60.2771 6.05908C60.2771 6.74773 60.411 7.34074 60.6788 7.8381C60.9467 8.3227 61.3292 8.69891 61.8266 8.96672C62.3367 9.22178 62.9297 9.34931 63.6056 9.34931C64.4601 9.34931 65.1806 9.13888 65.7672 8.71804C66.3666 8.2972 66.7428 7.74245 66.8958 7.0538H70.0904Z" fill="white"/>
<path d="M78.0513 11.7787C76.6995 11.7787 75.5135 11.5428 74.4933 11.0709C73.4731 10.5863 72.676 9.91681 72.1021 9.06237C71.5282 8.19518 71.2413 7.19408 71.2413 6.05908C71.2413 4.91133 71.5282 3.91023 72.1021 3.05579C72.676 2.1886 73.4731 1.51908 74.4933 1.04722C75.5135 0.562616 76.6995 0.320312 78.0513 0.320312C79.4031 0.320312 80.5891 0.562616 81.6094 1.04722C82.6296 1.51908 83.4203 2.1886 83.9814 3.05579C84.5553 3.91023 84.8422 4.91133 84.8422 6.05908C84.8422 7.19408 84.5553 8.19518 83.9814 9.06237C83.4203 9.91681 82.6296 10.5863 81.6094 11.0709C80.5891 11.5428 79.4031 11.7787 78.0513 11.7787ZM78.0513 9.34931C78.791 9.34931 79.4222 9.2154 79.9451 8.94759C80.4807 8.67978 80.8888 8.30358 81.1694 7.81897C81.4627 7.32161 81.6094 6.73498 81.6094 6.05908C81.6094 5.37043 81.4627 4.7838 81.1694 4.29919C80.8888 3.80183 80.4807 3.41925 79.9451 3.15144C79.4222 2.88363 78.791 2.74972 78.0513 2.74972C77.3244 2.74972 76.6931 2.88363 76.1575 3.15144C75.6219 3.41925 75.2074 3.80183 74.9141 4.29919C74.6336 4.7838 74.4933 5.37043 74.4933 6.05908C74.4933 6.73498 74.6336 7.32161 74.9141 7.81897C75.2074 8.30358 75.6219 8.67978 76.1575 8.94759C76.6931 9.2154 77.3244 9.34931 78.0513 9.34931Z" fill="white"/>
<path d="M91.314 11.7787C90.3065 11.7787 89.4457 11.5747 88.7315 11.1666C88.0301 10.7457 87.4881 10.1527 87.1056 9.38757C86.7357 8.6224 86.5508 7.71695 86.5508 6.67122V0.607252H89.7454V6.19299C89.7454 7.1622 89.975 7.90186 90.4341 8.41197C90.8932 8.90933 91.5435 9.15801 92.3852 9.15801C93.0101 9.15801 93.5394 9.03049 93.973 8.77543C94.4193 8.50762 94.7636 8.12504 95.0059 7.62768C95.2482 7.13032 95.3694 6.55006 95.3694 5.88692L96.4024 6.44167C96.2748 7.56391 95.9751 8.52675 95.5033 9.33018C95.0314 10.1209 94.4321 10.7266 93.7051 11.1475C92.991 11.5683 92.1939 11.7787 91.314 11.7787ZM96.0389 11.4918L95.3694 7.35987V0.607252H98.564V7.8381L99.2335 11.4918H96.0389Z" fill="white"/>
<path d="M100.609 0.607252H103.842L104.492 4.52874V11.4918H101.298V4.18442L100.609 0.607252ZM109.791 0.492476V3.24708C109.459 3.17057 109.128 3.11318 108.796 3.07492C108.465 3.03666 108.152 3.01753 107.859 3.01753C107.221 3.01753 106.647 3.15144 106.137 3.41925C105.627 3.68706 105.226 4.10152 104.932 4.66265C104.639 5.22377 104.492 5.93155 104.492 6.78599L103.823 5.98256C103.899 5.20464 104.04 4.47773 104.244 3.80183C104.448 3.11318 104.728 2.5138 105.085 2.00369C105.455 1.48082 105.908 1.07273 106.443 0.779415C106.979 0.473347 107.617 0.320312 108.356 0.320312C108.599 0.320312 108.841 0.339442 109.083 0.377701C109.338 0.403206 109.574 0.441464 109.791 0.492476Z" fill="white"/>
<path d="M122.963 8.06765C122.963 8.84557 122.733 9.51509 122.274 10.0762C121.828 10.6373 121.158 11.0646 120.265 11.3579C119.373 11.6384 118.282 11.7787 116.994 11.7787C115.668 11.7787 114.514 11.6193 113.532 11.3005C112.55 10.9689 111.785 10.5034 111.236 9.90405C110.688 9.30467 110.395 8.60964 110.356 7.81897H113.608C113.685 8.17605 113.876 8.48849 114.182 8.7563C114.488 9.01136 114.884 9.20903 115.368 9.34931C115.866 9.48959 116.439 9.55973 117.09 9.55973C117.995 9.55973 118.678 9.45771 119.137 9.25366C119.609 9.04962 119.844 8.74355 119.844 8.33546C119.844 8.04214 119.679 7.81897 119.347 7.66594C119.028 7.5129 118.435 7.39813 117.568 7.32161L115.54 7.16857C114.329 7.06655 113.366 6.86251 112.652 6.55644C111.938 6.25037 111.428 5.86779 111.122 5.40869C110.828 4.93683 110.682 4.42034 110.682 3.85922C110.682 3.0813 110.924 2.4309 111.408 1.90804C111.893 1.38517 112.569 0.989836 113.436 0.722027C114.316 0.454218 115.33 0.320312 116.478 0.320312C117.651 0.320312 118.697 0.479723 119.615 0.798544C120.533 1.11736 121.266 1.55734 121.815 2.11846C122.376 2.67958 122.695 3.32998 122.771 4.06964H119.519C119.468 3.80183 119.322 3.55315 119.079 3.3236C118.85 3.0813 118.512 2.88363 118.065 2.73059C117.619 2.57756 117.039 2.50104 116.325 2.50104C115.521 2.50104 114.903 2.59669 114.469 2.78798C114.036 2.96652 113.819 3.24071 113.819 3.61054C113.819 3.8656 113.953 4.07602 114.22 4.2418C114.488 4.39484 114.986 4.50324 115.713 4.567L118.352 4.77742C119.526 4.87944 120.45 5.07711 121.126 5.37043C121.802 5.65099 122.274 6.02082 122.542 6.47992C122.822 6.93902 122.963 7.46827 122.963 8.06765Z" fill="white"/>
<path d="M130.935 11.7787C129.647 11.7787 128.492 11.5428 127.472 11.0709C126.465 10.5863 125.668 9.91043 125.081 9.04324C124.507 8.17605 124.22 7.16858 124.22 6.02082C124.22 4.88582 124.494 3.8911 125.043 3.03666C125.604 2.18222 126.369 1.51908 127.338 1.04722C128.308 0.562616 129.411 0.320312 130.648 0.320312C131.91 0.320312 132.994 0.600875 133.9 1.162C134.805 1.71037 135.5 2.48829 135.985 3.49576C136.482 4.50324 136.731 5.68925 136.731 7.0538H126.784V4.93046H135.009L133.766 5.69562C133.715 5.05798 133.555 4.51599 133.288 4.06964C133.032 3.62329 132.682 3.27897 132.235 3.03666C131.789 2.79436 131.266 2.67321 130.667 2.67321C130.016 2.67321 129.449 2.80711 128.964 3.07492C128.492 3.32998 128.123 3.69343 127.855 4.16529C127.6 4.62439 127.472 5.16638 127.472 5.79127C127.472 6.54369 127.638 7.1877 127.97 7.72332C128.301 8.25894 128.786 8.66703 129.423 8.94759C130.061 9.22816 130.833 9.36844 131.738 9.36844C132.554 9.36844 133.377 9.25366 134.206 9.02411C135.035 8.78181 135.781 8.44386 136.444 8.01026V10.1527C135.73 10.6628 134.894 11.0646 133.938 11.3579C132.994 11.6384 131.993 11.7787 130.935 11.7787Z" fill="white"/>
<path d="M150.517 8.06765C150.517 8.84557 150.287 9.51509 149.828 10.0762C149.382 10.6373 148.712 11.0646 147.82 11.3579C146.927 11.6384 145.837 11.7787 144.549 11.7787C143.222 11.7787 142.068 11.6193 141.086 11.3005C140.104 10.9689 139.339 10.5034 138.791 9.90405C138.242 9.30467 137.949 8.60964 137.911 7.81897H141.163C141.239 8.17605 141.43 8.48849 141.737 8.7563C142.043 9.01136 142.438 9.20903 142.923 9.34931C143.42 9.48959 143.994 9.55973 144.644 9.55973C145.55 9.55973 146.232 9.45771 146.691 9.25366C147.163 9.04962 147.399 8.74355 147.399 8.33546C147.399 8.04214 147.233 7.81897 146.901 7.66594C146.583 7.5129 145.99 7.39813 145.122 7.32161L143.095 7.16857C141.883 7.06655 140.92 6.86251 140.206 6.55644C139.492 6.25037 138.982 5.86779 138.676 5.40869C138.383 4.93683 138.236 4.42034 138.236 3.85922C138.236 3.0813 138.478 2.4309 138.963 1.90804C139.447 1.38517 140.123 0.989836 140.99 0.722027C141.87 0.454218 142.884 0.320312 144.032 0.320312C145.205 0.320312 146.251 0.479723 147.169 0.798544C148.087 1.11736 148.821 1.55734 149.369 2.11846C149.93 2.67958 150.249 3.32998 150.326 4.06964H147.074C147.023 3.80183 146.876 3.55315 146.634 3.3236C146.404 3.0813 146.066 2.88363 145.62 2.73059C145.173 2.57756 144.593 2.50104 143.879 2.50104C143.076 2.50104 142.457 2.59669 142.023 2.78798C141.59 2.96652 141.373 3.24071 141.373 3.61054C141.373 3.8656 141.507 4.07602 141.775 4.2418C142.043 4.39484 142.54 4.50324 143.267 4.567L145.907 4.77742C147.08 4.87944 148.005 5.07711 148.68 5.37043C149.356 5.65099 149.828 6.02082 150.096 6.47992C150.377 6.93902 150.517 7.46827 150.517 8.06765Z" fill="white"/>
</svg>
