<svg width="130" height="125" viewBox="0 0 130 125" fill="none" xmlns="http://www.w3.org/2000/svg">
<path d="M87.6854 62.1932C87.6854 79.3254 85.1971 94.814 81.1896 106.002C79.1851 111.598 76.8098 116.091 74.1974 119.176C71.5831 122.263 68.7796 123.886 65.9073 123.886C63.0349 123.886 60.2315 122.263 57.6172 119.176C55.0047 116.091 52.6295 111.598 50.625 106.002C46.6174 94.814 44.1291 79.3254 44.1291 62.1932C44.1291 45.0609 46.6174 29.5723 50.625 18.3846C52.6295 12.7885 55.0047 8.29531 57.6172 5.21059C60.2315 2.12367 63.0349 0.5 65.9073 0.5C68.7796 0.5 71.5831 2.12367 74.1974 5.21059C76.8098 8.29531 79.1851 12.7885 81.1896 18.3846C85.1971 29.5723 87.6854 45.0609 87.6854 62.1932Z" stroke="black"/>
<path d="M75.889 43.9974C90.726 52.5635 102.895 62.4627 110.58 71.5272C114.425 76.0612 117.128 80.3649 118.493 84.1697C119.86 87.9772 119.864 91.2169 118.428 93.7044C116.992 96.1919 114.184 97.808 110.203 98.5286C106.226 99.2487 101.147 99.059 95.2982 97.997C83.6055 95.8738 68.9478 90.2844 54.1109 81.7183C39.2739 73.1521 27.1045 63.2529 19.4194 54.1884C15.5754 49.6544 12.8717 45.3508 11.5065 41.546C10.1403 37.7385 10.1359 34.4988 11.5721 32.0112C13.0083 29.5237 15.8161 27.9077 19.7966 27.1871C23.7743 26.467 28.8532 26.6566 34.7017 27.7186C46.3944 29.8419 61.0521 35.4313 75.889 43.9974Z" stroke="black"/>
<path d="M54.1109 43.5972C68.9478 35.0311 83.6055 29.4417 95.2981 27.3184C101.147 26.2564 106.226 26.0668 110.203 26.7869C114.184 27.5075 116.992 29.1235 118.428 31.611C119.864 34.0985 119.86 37.3382 118.493 41.1458C117.128 44.9506 114.424 49.2542 110.58 53.7882C102.895 62.8527 90.726 72.7519 75.889 81.318C61.0521 89.8842 46.3944 95.4736 34.7017 97.5968C28.8532 98.6588 23.7743 98.8485 19.7966 98.1284C15.8161 97.4078 13.0082 95.7917 11.5721 93.3042C10.1359 90.8167 10.1403 87.577 11.5065 83.7695C12.8717 79.9647 15.5754 75.661 19.4194 71.127C27.1045 62.0625 39.2739 52.1633 54.1109 43.5972Z" stroke="black"/>
<circle cx="52.4251" cy="13.4644" r="7.39018" fill="#CEEAA4" stroke="black"/>
<circle cx="18.1008" cy="72.8707" r="7.39018" fill="#CEEAA4" stroke="black"/>
<circle cx="110.927" cy="72.8707" r="7.39018" fill="#CEEAA4" stroke="black"/>
</svg>
