<svg width="362" height="505" viewBox="0 0 362 505" fill="none" xmlns="http://www.w3.org/2000/svg">
<path d="M125.341 284.68C132.239 309.926 134.804 333.743 133.405 351.824C132.704 360.869 131.015 368.422 128.421 373.99C125.825 379.563 122.387 383.019 118.241 384.152C114.095 385.285 109.377 384.056 104.308 380.577C99.2431 377.102 93.9491 371.457 88.7465 364.024C78.3489 349.167 68.4482 327.354 61.551 302.108C54.6536 276.861 52.0878 253.045 53.4878 234.963C54.1882 225.919 55.8769 218.366 58.4709 212.798C61.0673 207.225 64.5054 203.768 68.6511 202.636C72.7969 201.503 77.5155 202.732 82.5843 206.211C87.649 209.685 92.9431 215.331 98.1456 222.763C108.544 237.62 118.444 259.433 125.341 284.68Z" stroke="black" stroke-width="1.88862"/>
<path d="M100.777 262.759C126.09 269.41 147.999 279.096 162.957 289.349C170.44 294.477 176.137 299.717 179.661 304.747C183.189 309.782 184.464 314.488 183.372 318.644C182.28 322.801 178.857 326.272 173.309 328.924C167.768 331.572 160.232 333.334 151.193 334.123C133.128 335.7 109.287 333.368 83.9743 326.717C58.6616 320.067 36.7528 310.381 21.7945 300.128C14.3117 294.999 8.6147 289.76 5.09006 284.73C1.56205 279.695 0.287304 274.989 1.37926 270.832C2.47123 266.676 5.89442 263.204 11.4416 260.554C16.9834 257.905 24.5198 256.143 33.5574 255.353C51.6236 253.777 75.4642 256.11 100.777 262.759Z" stroke="black" stroke-width="1.88862"/>
<path d="M68.7204 270.884C87.1354 252.287 106.479 238.157 122.837 230.329C131.02 226.414 138.406 224.1 144.525 223.562C150.649 223.024 155.362 224.273 158.415 227.297C161.469 230.321 162.765 235.021 162.287 241.151C161.809 247.274 159.568 254.682 155.732 262.904C148.064 279.337 134.123 298.818 115.708 317.414C97.2932 336.011 77.95 350.142 61.5915 357.969C53.4082 361.885 46.0226 364.199 39.9039 364.737C33.7795 365.275 29.0667 364.026 26.013 361.001C22.9592 357.977 21.6642 353.276 22.142 347.148C22.6196 341.024 24.8614 333.617 28.697 325.395C36.3645 308.96 50.305 289.48 68.7204 270.884Z" stroke="black" stroke-width="1.88862"/>
<path d="M56.846 237.634C62.7428 236.023 66.2172 229.936 64.6062 224.039C62.9952 218.143 56.9089 214.668 51.0121 216.279C45.1153 217.89 41.6409 223.977 43.2519 229.873C44.8629 235.77 50.9492 239.245 56.846 237.634Z" fill="#CFE8A9" stroke="black" stroke-width="1.88862"/>
<path d="M30.1632 339.073C36.06 337.462 39.5343 331.376 37.9233 325.479C36.3123 319.582 30.226 316.108 24.3292 317.719C18.4324 319.33 14.9581 325.416 16.5691 331.313C18.1801 337.21 24.2664 340.684 30.1632 339.073Z" fill="#CFE8A9" stroke="black" stroke-width="1.88862"/>
<path d="M167.055 301.675C172.952 300.064 176.426 293.977 174.815 288.08C173.204 282.184 167.118 278.709 161.221 280.32C155.324 281.931 151.85 288.018 153.461 293.914C155.072 299.811 161.158 303.286 167.055 301.675Z" fill="#CFE8A9" stroke="black" stroke-width="1.88862"/>
<path d="M281.931 472.653L306.66 498.169C308.493 500.06 307.152 503.225 304.52 503.225H255.062C252.429 503.225 251.089 500.06 252.922 498.169L277.65 472.653C278.822 471.444 280.76 471.444 281.931 472.653Z" fill="#CFE8A9" stroke="black" stroke-width="1.88862"/>
<path d="M198.49 491.66L361 432.512" stroke="black" stroke-width="1.88862" stroke-linecap="round"/>
<path d="M223.634 479.754C236.972 479.754 247.785 468.941 247.785 455.603C247.785 442.265 236.972 431.452 223.634 431.452C210.296 431.452 199.483 442.265 199.483 455.603C199.483 468.941 210.296 479.754 223.634 479.754Z" stroke="black" stroke-width="1.88862"/>
<path d="M335.947 372.471C349.285 372.471 360.098 361.658 360.098 348.32C360.098 334.982 349.285 324.169 335.947 324.169C322.609 324.169 311.796 334.982 311.796 348.32C311.796 361.658 322.609 372.471 335.947 372.471Z" stroke="black" stroke-width="1.88862"/>
<path d="M223.261 126.303C225.432 123.022 230.532 114.765 233.578 107.988C236.001 102.598 236.332 97.9591 234.281 91.979C227.06 74.1185 227.737 53.256 237.929 35.1656C255.705 3.6074 295.699 -7.56433 327.257 10.2127C358.816 27.9898 369.988 67.9838 352.21 99.5418C342.02 117.633 324.024 129.022 305.511 132.103C300.222 132.984 295.187 137.385 292.185 141.002C287.381 146.789 283.305 155.622 281.868 159.316" stroke="black" stroke-width="1.88862"/>
<path d="M284.189 160.802L222.253 125.912C220.818 125.104 219 125.612 218.192 127.047L214.666 133.307C213.858 134.741 214.366 136.559 215.8 137.367L277.736 172.256C279.171 173.065 280.989 172.557 281.797 171.122L285.323 164.862C286.131 163.428 285.623 161.61 284.189 160.802Z" fill="#CFE8A9" stroke="black" stroke-width="1.88862"/>
<path d="M272.626 167.621L220.946 138.509C219.511 137.701 217.694 138.209 216.886 139.643L213.359 145.903C212.551 147.338 213.059 149.156 214.493 149.964L266.173 179.076C267.608 179.884 269.426 179.376 270.234 177.942L273.76 171.681C274.568 170.247 274.061 168.429 272.626 167.621Z" fill="#CFE8A9" stroke="black" stroke-width="1.88862"/>
<path d="M24.2777 118.119C23.9917 118.224 23.7025 118.222 23.4101 118.113C23.1377 117.961 22.9432 117.725 22.8265 117.408L11.8656 87.5742C11.7606 87.2879 11.7683 87.0143 11.8889 86.7534C12.0412 86.4819 12.2604 86.2925 12.5463 86.1883L33.373 78.5363C33.659 78.4311 33.9323 78.4389 34.193 78.5595C34.4854 78.6684 34.6842 78.8658 34.7892 79.1519C34.906 79.4695 34.894 79.7805 34.7533 80.0846C34.6327 80.3453 34.4294 80.5281 34.1435 80.6332L14.3653 87.8993L18.8126 100.005L36.2079 93.6143C36.4939 93.5091 36.7672 93.5164 37.0278 93.6375C37.3203 93.7458 37.5249 93.9595 37.6416 94.2772C37.7467 94.5635 37.7289 94.8581 37.5882 95.1622C37.4676 95.4232 37.2643 95.6063 36.9784 95.7105L19.5831 102.102L24.5557 115.637L44.2386 108.405C44.5246 108.3 44.7978 108.308 45.0585 108.428C45.3509 108.538 45.5497 108.735 45.6547 109.021C45.7715 109.339 45.7595 109.65 45.6188 109.954C45.4982 110.214 45.2949 110.397 45.009 110.502L24.2777 118.119ZM46.2183 93.7227C45.9642 93.8163 45.6909 93.8079 45.3984 93.6995C45.1377 93.5785 44.9607 93.3912 44.8674 93.1366C44.7623 92.8514 44.7701 92.5778 44.8907 92.3168C45.0313 92.0127 45.2288 91.8138 45.483 91.7212L59.4945 86.5734C59.8122 86.4566 60.1073 86.4745 60.3796 86.6261C60.6403 86.7471 60.8232 86.9502 60.9282 87.2364C61.0216 87.491 61.0079 87.7478 60.8873 88.0088C60.7668 88.2697 60.5477 88.4581 60.2299 88.5749L46.2183 93.7227ZM49.0024 101.3C48.7481 101.394 48.4749 101.385 48.1824 101.277C47.9218 101.156 47.7389 100.953 47.6339 100.667C47.5287 100.382 47.5365 100.108 47.6571 99.847C47.7978 99.5429 47.9952 99.344 48.2495 99.2504L62.261 94.1036C62.5787 93.9868 62.8737 94.0047 63.1461 94.1562C63.4067 94.2773 63.5896 94.4803 63.6946 94.7666C63.7998 95.0528 63.792 95.3253 63.6714 95.5863C63.5508 95.8473 63.3316 96.0356 63.0139 96.1524L49.0024 101.3ZM75.0052 99.807C74.7509 99.8996 74.4777 99.8923 74.1852 99.7828C73.9246 99.6629 73.7417 99.4598 73.6367 99.1736L65.6523 77.4412C65.5473 77.1552 65.5551 76.882 65.6757 76.6212C65.8164 76.3171 66.0138 76.1184 66.268 76.025C66.5857 75.9083 66.8808 75.9261 67.1531 76.0784C67.4137 76.199 67.5966 76.4023 67.7017 76.6882L70.3106 83.7891C70.6341 81.0381 71.4312 78.5455 72.7019 76.3117C74.0046 74.0661 75.5296 72.6224 77.2775 71.9804C78.7065 71.4551 80.1366 71.4706 81.5677 72.0269C82.9862 72.5514 84.2573 73.8515 85.3801 75.927C85.5895 73.6504 86.3282 71.6843 87.5952 70.0288C88.8495 68.3416 90.1922 67.2353 91.6223 66.71C95.9114 65.1342 99.1009 67.19 101.191 72.8772L106.426 87.1269C106.531 87.4132 106.507 87.692 106.354 87.9646C106.234 88.2255 106.047 88.4023 105.792 88.496C105.506 88.6002 105.217 88.5991 104.925 88.4897C104.664 88.3686 104.481 88.1656 104.376 87.8804L99.0715 73.4394C98.2422 71.1836 97.2752 69.6816 96.1713 68.9333C95.0991 68.1734 93.7837 68.0795 92.2274 68.6514C91.2108 69.0249 90.2028 69.864 89.2031 71.1687C88.1929 72.4416 87.4952 73.9781 87.1101 75.7781C86.7144 77.5464 86.8491 79.336 87.5142 81.147L91.6991 92.5378C91.8043 92.823 91.7801 93.1029 91.6286 93.3744C91.5076 93.6354 91.3045 93.8185 91.0183 93.9237C90.7321 94.0289 90.4427 94.0268 90.1512 93.9174C89.8902 93.7974 89.7071 93.5933 89.6019 93.3081L84.2973 78.8673C83.4565 76.5796 82.5053 75.0718 81.4446 74.3437C80.4038 73.5721 79.1853 73.4431 77.7868 73.9567C76.6114 74.3887 75.5488 75.3739 74.5996 76.9127C73.6503 78.4514 72.9544 80.0414 72.5116 81.6826C72.0169 83.3787 71.7715 84.8214 71.7755 86.0094C71.7677 87.1669 72.0615 88.5549 72.6568 90.1754L75.6859 98.4201C75.791 98.7063 75.7832 98.9799 75.6626 99.2409C75.542 99.5008 75.3229 99.6902 75.0052 99.807ZM123.35 82.0451C121.602 82.6871 119.776 82.871 117.873 82.5968C115.989 82.2792 114.284 81.517 112.76 80.3103C111.235 79.1037 110.11 77.5154 109.386 75.5456C108.593 73.385 108.303 71.0753 108.518 68.6165C108.764 66.1461 109.452 63.946 110.582 62.0162C111.744 60.0747 113.198 58.783 114.946 58.141C116.598 57.534 118.047 57.308 119.294 57.4629C120.541 57.6178 121.868 58.0863 123.273 58.8682C123.49 58.9687 123.651 59.1619 123.756 59.4478C123.861 59.7339 123.854 60.0071 123.733 60.2678C123.612 60.5284 123.425 60.7055 123.171 60.7989C122.949 60.8806 122.675 60.8729 122.351 60.7756C121.25 60.1344 120.182 59.733 119.15 59.5716C118.105 59.3784 116.964 59.5094 115.724 59.9646C114.295 60.4899 113.116 61.5538 112.191 63.156C111.265 64.7583 110.706 66.6226 110.513 68.7487C110.34 70.8315 110.605 72.826 111.305 74.7323C111.947 76.4798 112.905 77.859 114.178 78.8698C115.47 79.8372 116.875 80.421 118.391 80.6214C119.907 80.8216 121.317 80.6825 122.62 80.2039C125.669 79.0833 127.64 76.9889 128.532 73.9205C128.687 73.3589 128.939 73.014 129.288 72.8856C129.543 72.7921 129.799 72.8058 130.06 72.9264C130.353 73.0353 130.545 73.2168 130.639 73.4711C130.698 73.6299 130.67 73.9467 130.556 74.4213C130.141 75.9438 129.282 77.4317 127.977 78.8848C126.702 80.3263 125.161 81.3798 123.35 82.0451ZM126.149 55.4858C125.6 53.9925 125.362 52.6557 125.432 51.4756C125.535 50.2838 125.896 49.1056 126.514 47.941C127.163 46.7647 128.148 45.3213 129.467 43.6107C130.526 42.1757 130.805 40.7751 130.303 39.4089C130.011 38.6146 129.427 38.0541 128.549 37.7273C127.693 37.357 126.771 37.3529 125.786 37.7148C125.056 37.9833 124.426 38.4307 123.899 39.0571C123.36 39.6517 122.961 40.2314 122.7 40.7962C122.659 40.883 122.589 41.0351 122.488 41.2524C122.388 41.4696 122.286 41.6333 122.182 41.7436C122.11 41.8421 122.026 41.9089 121.93 41.944C121.74 42.0139 121.52 42.0046 121.272 41.9158C121.054 41.8153 120.904 41.6538 120.823 41.4314C120.741 41.209 120.744 40.9733 120.834 40.7243C121.193 39.8353 121.717 38.9574 122.408 38.0904C123.099 37.2234 124.017 36.5798 125.161 36.1595C126.558 35.6459 127.902 35.6213 129.19 36.0854C130.499 36.5063 131.41 37.4156 131.924 38.8136C132.402 40.1162 132.417 41.3366 131.97 42.4746C131.543 43.5691 130.824 44.7528 129.813 46.0258C127.409 49.0008 126.638 51.664 127.501 54.0151L135.747 50.986C135.969 50.9042 136.189 50.9137 136.406 51.0142C136.623 51.1147 136.778 51.292 136.872 51.5461C136.942 51.7368 136.911 51.9465 136.778 52.1755C136.678 52.3927 136.533 52.5363 136.341 52.6063L126.429 56.2483L126.149 55.4858Z" fill="black"/>
</svg>
