<svg width="402" height="451" viewBox="0 0 402 451" fill="none" xmlns="http://www.w3.org/2000/svg">
<path d="M233.166 349.115L230.52 356.332L218.292 389.617C213.705 392.858 207.912 394.94 201.415 394.94C200.648 394.94 199.724 394.752 198.941 394.705C192.146 394.236 185.633 391.261 181.125 387.472L184.772 347.33L185.039 344.418C204.75 352.058 227.733 350.774 233.166 349.115Z" fill="#EFBF9A"/>
<path d="M233.166 349.115L227.983 363.205C212.171 365.35 189 352.418 184.788 347.33L185.054 344.418C204.75 352.058 227.733 350.774 233.166 349.115Z" fill="#3D3D3D"/>
<path d="M218.543 389.566L214.801 428.754C214.128 439.087 206.206 446.993 196.812 446.993C196.389 446.993 195.967 446.977 195.528 446.946C185.571 446.195 178.072 436.816 178.776 426.014L181.046 391.382L181.281 387.672C183.285 389.551 185.618 391.163 188.201 392.416C191.442 393.981 195.058 394.999 198.926 395.296C199.708 395.359 200.475 395.39 201.243 395.39C203.466 395.39 205.642 395.14 207.709 394.67C207.771 394.655 207.849 394.639 207.912 394.623C211.779 393.715 215.317 392.04 218.261 389.77C218.37 389.707 218.464 389.645 218.543 389.566Z" fill="white" stroke="#FFCF2D" stroke-width="0.839551" stroke-miterlimit="10"/>
<path d="M214.957 391.946L212.312 423.305C211.748 432.041 205.047 438.726 197.094 438.726C196.734 438.726 196.374 438.711 196.014 438.679C187.606 438.037 181.25 430.115 181.845 420.972L183.927 389.77" stroke="#FFCF2D" stroke-width="0.839551" stroke-miterlimit="10"/>
<path d="M207.881 394.279C205.814 394.702 203.482 394.78 201.258 394.78C200.491 394.78 199.724 394.749 198.941 394.702C195.074 394.436 191.442 393.496 188.217 392.056L187.184 386.983C186.526 384.823 188.17 382.646 190.44 382.725L205.47 383.163C207.38 383.21 208.836 384.87 208.664 386.764L207.881 394.279Z" fill="#FFCF2D"/>
<path d="M207.724 394.125L205.83 417.938C205.501 422.557 201.117 425.97 196.984 425.218L196.655 425.187C190.769 424.107 186.26 417.97 187.027 411.394L188.217 392.043C191.458 393.483 195.074 394.423 198.941 394.689C199.724 394.751 200.491 394.767 201.258 394.767C203.481 394.783 205.658 394.548 207.724 394.125Z" fill="#FFCF2D"/>
<path d="M205.423 419.926L188.279 416.012C186.541 415.62 186.667 413.1 188.451 412.881L204.843 410.955C206.8 410.72 207.067 407.98 205.188 407.385L189.485 402.407C187.089 401.639 187.277 398.195 189.751 397.694L207.74 394.579C207.74 394.579 194.307 395.753 188.232 392.402" stroke="white" stroke-width="0.839551" stroke-miterlimit="10" stroke-linecap="round" stroke-linejoin="round"/>
<path d="M265.511 261.046L233.165 349.112C227.733 350.771 202.104 352.963 177.085 341.362L196.765 250.321C198.597 236.544 210.339 226.242 224.257 226.242H238.723C256.9 226.227 270.177 243.448 265.511 261.046Z" fill="#FE5244"/>
<path d="M236.923 339.715C231.49 341.374 203.669 343.41 178.651 331.809" stroke="white" stroke-width="1.00746" stroke-miterlimit="10" stroke-linecap="round"/>
<path d="M276.298 350.855L273.042 356.633L252.203 393.096C244.172 396.274 234.7 397.448 226.214 395.663L225.149 395.366C220.954 394.489 216.664 392.141 213.626 389.51L228.829 348.883C228.829 348.883 228.844 348.883 228.86 348.883C234.105 350.621 252.141 355.505 276.298 350.855Z" fill="#EFBF9A"/>
<path d="M276.298 350.855L269.425 362.958C242.966 367.185 227.968 351.263 227.968 351.263L228.844 348.898C234.105 350.621 252.141 355.505 276.298 350.855Z" fill="#3D3D3D"/>
<path d="M320.886 275.016L284.799 349.164C254.254 356.804 234.057 350.619 228.844 348.897L266.607 247.9C269.19 241.778 273.48 236.721 278.787 233.198C284.095 229.676 290.42 227.688 297.058 227.688C322.202 227.688 333.036 252.988 320.886 275.016Z" fill="#FE5244"/>
<path d="M288.854 341.18C258.309 348.82 237.486 342.636 232.273 340.914" stroke="white" stroke-width="1.00746" stroke-miterlimit="10" stroke-linecap="round"/>
<path d="M266.607 247.898L211.106 397.508" stroke="white" stroke-width="1.00746" stroke-miterlimit="10"/>
<path d="M251.89 393.206L250.669 396.416L236.829 432.628C232.868 445.044 219.842 452.418 208.397 449.584L207.771 449.38C199.739 447.392 194.635 437.717 197.782 429.168L213.595 390.529L213.924 389.73C215.912 391.515 218.229 392.987 220.812 394.052C222.19 394.615 223.646 395.069 225.165 395.398L226.229 395.695C230.723 396.635 235.357 396.807 239.929 396.275C244.031 395.774 248.07 394.74 251.89 393.206Z" fill="white" stroke="#FFCF2D" stroke-width="0.839551" stroke-miterlimit="10"/>
<path d="M247.412 394.878L235.279 426.942C231.96 437.337 221.047 443.521 211.466 441.142L210.949 440.969C204.217 439.294 199.943 431.2 202.573 424.03L215.975 391.496" stroke="#FFCF2D" stroke-width="0.839551" stroke-miterlimit="10" stroke-linecap="round"/>
<path d="M242.762 391.419L239.913 396.241C235.357 396.773 230.723 396.601 226.214 395.662L225.149 395.364C223.63 395.051 222.174 394.597 220.797 394.018L221.924 386.19C222.19 384.311 224.006 383.043 225.869 383.434L240.586 386.519C242.809 386.973 243.921 389.478 242.762 391.419Z" fill="#FFCF2D"/>
<path d="M239.913 396.243L239.835 396.368L232.476 415.813C230.457 422.122 223.85 425.864 218.026 424.424L217.713 424.314C213.626 423.297 211.027 418.38 212.64 414.044L220.766 394.317L220.813 394.02C222.19 394.583 223.646 395.037 225.165 395.366L226.23 395.663C230.723 396.618 235.357 396.775 239.913 396.243Z" fill="#FFCF2D"/>
<path d="M212.17 417.5L229.079 419.332C231.161 419.551 232.038 416.733 230.191 415.746L217.024 408.717C215.223 407.762 215.975 405.038 218.01 405.132L234.637 405.883C236.876 405.993 237.69 402.987 235.717 401.938L220.797 393.984C220.797 393.984 228.484 397.601 239.866 396.192" stroke="white" stroke-width="0.839551" stroke-miterlimit="10" stroke-linecap="round" stroke-linejoin="round"/>
<path d="M172.483 230.897C236.243 230.897 287.931 179.209 287.931 115.448C287.931 51.688 236.243 0 172.483 0C108.722 0 57.0344 51.688 57.0344 115.448C57.0344 179.209 108.722 230.897 172.483 230.897Z" fill="#CEEAA3"/>
<path d="M133.812 230.913C85.5443 214.756 50.7563 169.165 50.7563 115.449" stroke="#FFCF2D" stroke-width="1.17537" stroke-miterlimit="10"/>
<path d="M172.483 190.019C213.667 190.019 247.053 156.633 247.053 115.449C247.053 74.2651 213.667 40.8789 172.483 40.8789C131.299 40.8789 97.9128 74.2651 97.9128 115.449C97.9128 156.633 131.299 190.019 172.483 190.019Z" stroke="#4087EE" stroke-width="1.6791" stroke-miterlimit="10" stroke-linecap="round" stroke-dasharray="5.04 5.04"/>
<path d="M172.483 40.8867V53.302" stroke="#4087EE" stroke-width="2.51865" stroke-miterlimit="10" stroke-linecap="round"/>
<path d="M172.483 177.582V190.013" stroke="#4087EE" stroke-width="2.51865" stroke-miterlimit="10" stroke-linecap="round"/>
<path d="M119.753 62.7188L128.536 71.5175" stroke="#4087EE" stroke-width="2.51865" stroke-miterlimit="10" stroke-linecap="round"/>
<path d="M216.414 159.398L225.197 168.182" stroke="#4087EE" stroke-width="2.51865" stroke-miterlimit="10" stroke-linecap="round"/>
<path d="M97.9128 115.445H110.344" stroke="#4087EE" stroke-width="2.51865" stroke-miterlimit="10" stroke-linecap="round"/>
<path d="M234.622 115.445H247.037" stroke="#4087EE" stroke-width="2.51865" stroke-miterlimit="10" stroke-linecap="round"/>
<path d="M119.753 168.182L128.536 159.398" stroke="#4087EE" stroke-width="2.51865" stroke-miterlimit="10" stroke-linecap="round"/>
<path d="M216.414 71.5175L225.197 62.7188" stroke="#4087EE" stroke-width="2.51865" stroke-miterlimit="10" stroke-linecap="round"/>
<path d="M172.483 194.721C161.79 194.721 151.41 192.623 141.625 188.49C132.184 184.498 123.714 178.783 116.434 171.503C109.154 164.223 103.44 155.753 99.4475 146.312C95.3142 136.543 93.2163 126.163 93.2163 115.454C93.2163 93.4884 101.733 73.3233 117.061 59.405L123.37 66.3563C116.841 72.29 112.035 78.8029 108.309 87.539C104.567 96.3221 102.594 105.966 102.594 115.438C102.594 124.879 104.442 134.022 108.09 142.633C111.612 150.946 116.654 158.43 123.073 164.849C129.492 171.268 136.96 176.309 145.289 179.816C153.899 183.464 163.043 185.312 172.483 185.312C181.924 185.312 191.067 183.464 199.678 179.816C207.991 176.294 215.475 171.252 221.894 164.849C228.313 158.43 233.354 150.962 236.877 142.633C240.525 134.022 242.372 124.879 242.372 115.438C242.372 106.045 240.462 96.9171 236.689 88.2905C233.057 79.9928 227.859 72.5092 221.252 66.0745C214.661 59.6555 207.021 54.5985 198.535 51.0602C189.783 47.4124 181.955 45.8781 172.515 45.8781V36.4844C183.208 36.4844 192.257 38.2692 202.152 42.3867C211.733 46.379 220.36 52.0779 227.812 59.3423C235.296 66.6381 241.182 75.1081 245.3 84.5174C249.59 94.3338 251.782 104.729 251.782 115.423C251.782 126.116 249.684 136.496 245.551 146.281C241.558 155.722 235.844 164.192 228.564 171.472C221.284 178.752 212.814 184.466 203.373 188.459C193.556 192.623 183.176 194.721 172.483 194.721Z" fill="#CEEAA3" stroke="#4087EE" stroke-width="2.51865" stroke-miterlimit="10" stroke-linecap="round" stroke-linejoin="round"/>
<path d="M133.405 75.6328L182.613 126.108" stroke="#FE5244" stroke-width="1.17537" stroke-miterlimit="10" stroke-linecap="round"/>
<path d="M173.015 119.859C175.168 119.859 176.914 118.114 176.914 115.961C176.914 113.808 175.168 112.062 173.015 112.062C170.862 112.062 169.117 113.808 169.117 115.961C169.117 118.114 170.862 119.859 173.015 119.859Z" fill="#CEEAA3" stroke="#4087EE" stroke-width="2.51865" stroke-miterlimit="10" stroke-linecap="round"/>
<path d="M194.277 33.0148L194.981 27.9892C195.326 25.672 197.658 24.2004 199.897 24.8892L204.813 26.3766C207.052 27.0498 208.179 29.5704 207.177 31.6997L204.798 36.4904" stroke="#4087EE" stroke-width="2.51865" stroke-miterlimit="10" stroke-linecap="round"/>
<path d="M160.725 450.159V248.43H343.322V450.159" stroke="#8FCBFF" stroke-width="1.00746" stroke-miterlimit="10"/>
<path d="M349.788 255.174H154.259C149.844 255.174 146.258 251.589 146.258 247.174V216.692C146.258 212.277 149.844 208.691 154.259 208.691H349.788C354.203 208.691 357.788 212.277 357.788 216.692V247.174C357.788 251.589 354.203 255.174 349.788 255.174Z" fill="white" stroke="#8FCBFF" stroke-width="1.00746" stroke-miterlimit="10"/>
<path d="M350.258 249.698H153.789C149.374 249.698 145.789 246.113 145.789 241.698V211.215C145.789 206.8 149.374 203.215 153.789 203.215H350.258C354.673 203.215 358.258 206.8 358.258 211.215V241.698C358.258 246.113 354.673 249.698 350.258 249.698Z" fill="#8FCBFF"/>
<path d="M349.037 371.745V347.854C349.037 339.712 355.644 333.105 363.785 333.105C371.927 333.105 378.534 339.712 378.534 347.854V371.745" stroke="#FFCF2D" stroke-width="1.00746" stroke-miterlimit="10"/>
<path d="M334.462 450.308H389.399C395.802 450.308 401 445.11 401 438.707V362.179C401 355.776 395.802 350.578 389.399 350.578H334.462C328.058 350.578 322.86 355.776 322.86 362.179V438.707C322.86 445.126 328.058 450.308 334.462 450.308Z" fill="#3FB1B5"/>
<path d="M400.984 368.347C400.984 361.02 395.035 355.07 387.708 355.07H344.904C337.577 355.07 331.628 361.02 331.628 368.347V421.233" stroke="white" stroke-width="1.00746" stroke-miterlimit="10"/>
<path d="M389.571 450.306H352.106C345.797 450.306 340.693 445.202 340.693 438.893V370.741C340.693 364.432 345.797 359.328 352.106 359.328H389.571C395.881 359.328 400.985 364.432 400.985 370.741V438.893C400.985 445.202 395.881 450.306 389.571 450.306Z" fill="white" stroke="#FFCF2D" stroke-width="1.00746" stroke-miterlimit="10"/>
<path d="M357.288 377.116V353.225C357.288 345.083 363.895 338.477 372.036 338.477C380.177 338.477 386.784 345.083 386.784 353.225V377.116" stroke="#FFCF2D" stroke-width="1.00746" stroke-miterlimit="10"/>
<path d="M389.446 441.335H352.591C349.601 441.335 347.174 438.909 347.174 435.918V407.753C347.174 404.763 349.601 402.336 352.591 402.336H389.446C392.436 402.336 394.863 404.763 394.863 407.753V435.918C394.878 438.909 392.452 441.335 389.446 441.335Z" fill="#FFCF2D"/>
<path d="M333.976 421.23H329.342" stroke="#FFCF2D" stroke-width="1.00746" stroke-miterlimit="10"/>
<path d="M323.58 372.246C323.58 395.073 298.625 428.937 307.22 439.787C315.424 450.135 323.58 439.771 323.58 439.771V372.246Z" fill="white" stroke="#3FB1B5" stroke-width="1.00746" stroke-miterlimit="10"/>
<path d="M350.118 412.797H391.528" stroke="white" stroke-width="0.839551" stroke-miterlimit="10" stroke-linecap="round"/>
<path d="M360.263 376.645H354.314V379.494H360.263V376.645Z" stroke="#FFCF2D" stroke-width="1.00746" stroke-miterlimit="10"/>
<path d="M389.649 376.645H383.7V379.494H389.649V376.645Z" stroke="#FFCF2D" stroke-width="1.00746" stroke-miterlimit="10"/>
<path d="M350.117 414.703V412.793" stroke="white" stroke-width="0.839551" stroke-miterlimit="10" stroke-linecap="round"/>
<path d="M353.875 414.703V412.793" stroke="white" stroke-width="0.839551" stroke-miterlimit="10" stroke-linecap="round"/>
<path d="M357.648 414.703V412.793" stroke="white" stroke-width="0.839551" stroke-miterlimit="10" stroke-linecap="round"/>
<path d="M361.406 414.703V412.793" stroke="white" stroke-width="0.839551" stroke-miterlimit="10" stroke-linecap="round"/>
<path d="M365.178 414.703V412.793" stroke="white" stroke-width="0.839551" stroke-miterlimit="10" stroke-linecap="round"/>
<path d="M368.936 414.703V412.793" stroke="white" stroke-width="0.839551" stroke-miterlimit="10" stroke-linecap="round"/>
<path d="M372.882 414.703V412.793" stroke="white" stroke-width="0.839551" stroke-miterlimit="10" stroke-linecap="round"/>
<path d="M376.655 414.703V412.793" stroke="white" stroke-width="0.839551" stroke-miterlimit="10" stroke-linecap="round"/>
<path d="M380.24 414.703V412.793" stroke="white" stroke-width="0.839551" stroke-miterlimit="10" stroke-linecap="round"/>
<path d="M383.998 414.703V412.793" stroke="white" stroke-width="0.839551" stroke-miterlimit="10" stroke-linecap="round"/>
<path d="M387.771 414.703V412.793" stroke="white" stroke-width="0.839551" stroke-miterlimit="10" stroke-linecap="round"/>
<path d="M391.528 414.703V412.793" stroke="white" stroke-width="0.839551" stroke-miterlimit="10" stroke-linecap="round"/>
<path d="M354.486 421.232C353.468 421.232 352.701 420.339 352.826 419.337L353.656 412.777H355.315L356.145 419.337C356.286 420.339 355.503 421.232 354.486 421.232Z" fill="white" stroke="#3FB1B5" stroke-width="1.00746" stroke-miterlimit="10"/>
<path d="M292.878 203.199H222.817V240.257H292.878V203.199Z" fill="white"/>
<path d="M284.675 232.346C285.479 232.346 286.131 231.694 286.131 230.89C286.131 230.085 285.479 229.434 284.675 229.434C283.871 229.434 283.219 230.085 283.219 230.89C283.219 231.694 283.871 232.346 284.675 232.346Z" fill="#FE5244" stroke="#FE5244" stroke-width="0.839551" stroke-miterlimit="10"/>
<path d="M279.289 232.346C280.093 232.346 280.745 231.694 280.745 230.89C280.745 230.085 280.093 229.434 279.289 229.434C278.485 229.434 277.833 230.085 277.833 230.89C277.833 231.694 278.485 232.346 279.289 232.346Z" fill="white" stroke="#FE5244" stroke-width="0.839551" stroke-miterlimit="10"/>
<path d="M273.919 232.346C274.723 232.346 275.375 231.694 275.375 230.89C275.375 230.085 274.723 229.434 273.919 229.434C273.115 229.434 272.463 230.085 272.463 230.89C272.463 231.694 273.115 232.346 273.919 232.346Z" fill="white" stroke="#FE5244" stroke-width="0.839551" stroke-miterlimit="10"/>
<path d="M284.675 226.92C285.479 226.92 286.131 226.268 286.131 225.464C286.131 224.66 285.479 224.008 284.675 224.008C283.871 224.008 283.219 224.66 283.219 225.464C283.219 226.268 283.871 226.92 284.675 226.92Z" fill="#FE5244" stroke="#FE5244" stroke-width="0.839551" stroke-miterlimit="10"/>
<path d="M279.289 226.92C280.093 226.92 280.745 226.268 280.745 225.464C280.745 224.66 280.093 224.008 279.289 224.008C278.485 224.008 277.833 224.66 277.833 225.464C277.833 226.268 278.485 226.92 279.289 226.92Z" fill="white" stroke="#FE5244" stroke-width="0.839551" stroke-miterlimit="10"/>
<path d="M273.919 226.92C274.723 226.92 275.375 226.268 275.375 225.464C275.375 224.66 274.723 224.008 273.919 224.008C273.115 224.008 272.463 224.66 272.463 225.464C272.463 226.268 273.115 226.92 273.919 226.92Z" fill="white" stroke="#FE5244" stroke-width="0.839551" stroke-miterlimit="10"/>
<path d="M284.675 216.072C285.479 216.072 286.131 215.42 286.131 214.616C286.131 213.812 285.479 213.16 284.675 213.16C283.871 213.16 283.219 213.812 283.219 214.616C283.219 215.42 283.871 216.072 284.675 216.072Z" fill="white" stroke="#FE5244" stroke-width="0.839551" stroke-miterlimit="10"/>
<path d="M279.289 216.072C280.093 216.072 280.745 215.42 280.745 214.616C280.745 213.812 280.093 213.16 279.289 213.16C278.485 213.16 277.833 213.812 277.833 214.616C277.833 215.42 278.485 216.072 279.289 216.072Z" fill="#FE5244" stroke="#FE5244" stroke-width="0.839551" stroke-miterlimit="10"/>
<path d="M273.919 216.072C274.724 216.072 275.375 215.42 275.375 214.616C275.375 213.812 274.724 213.16 273.919 213.16C273.115 213.16 272.463 213.812 272.463 214.616C272.463 215.42 273.115 216.072 273.919 216.072Z" fill="white" stroke="#FE5244" stroke-width="0.839551" stroke-miterlimit="10"/>
<path d="M284.675 221.498C285.479 221.498 286.131 220.846 286.131 220.042C286.131 219.238 285.479 218.586 284.675 218.586C283.871 218.586 283.219 219.238 283.219 220.042C283.219 220.846 283.871 221.498 284.675 221.498Z" fill="white" stroke="#FE5244" stroke-width="0.839551" stroke-miterlimit="10"/>
<path d="M279.29 221.498C280.094 221.498 280.746 220.846 280.746 220.042C280.746 219.238 280.094 218.586 279.29 218.586C278.485 218.586 277.833 219.238 277.833 220.042C277.833 220.846 278.485 221.498 279.29 221.498Z" fill="white" stroke="#FE5244" stroke-width="0.839551" stroke-miterlimit="10"/>
<path d="M273.919 221.498C274.724 221.498 275.375 220.846 275.375 220.042C275.375 219.238 274.724 218.586 273.919 218.586C273.115 218.586 272.463 219.238 272.463 220.042C272.463 220.846 273.115 221.498 273.919 221.498Z" fill="#FE5244" stroke="#FE5244" stroke-width="0.839551" stroke-miterlimit="10"/>
<path d="M242.246 221.502C243.05 221.502 243.702 220.85 243.702 220.046C243.702 219.242 243.05 218.59 242.246 218.59C241.442 218.59 240.79 219.242 240.79 220.046C240.79 220.85 241.442 221.502 242.246 221.502Z" fill="#FE5244" stroke="#FE5244" stroke-width="0.839551" stroke-miterlimit="10"/>
<path d="M236.861 221.502C237.665 221.502 238.317 220.85 238.317 220.046C238.317 219.242 237.665 218.59 236.861 218.59C236.056 218.59 235.405 219.242 235.405 220.046C235.405 220.85 236.056 221.502 236.861 221.502Z" fill="white" stroke="#FE5244" stroke-width="0.839551" stroke-miterlimit="10"/>
<path d="M231.491 210.662C232.295 210.662 232.947 210.01 232.947 209.206C232.947 208.402 232.295 207.75 231.491 207.75C230.687 207.75 230.035 208.402 230.035 209.206C230.035 210.01 230.687 210.662 231.491 210.662Z" fill="white" stroke="#FE5244" stroke-width="0.839551" stroke-miterlimit="10"/>
<path d="M242.247 216.072C243.051 216.072 243.703 215.42 243.703 214.616C243.703 213.812 243.051 213.16 242.247 213.16C241.443 213.16 240.791 213.812 240.791 214.616C240.791 215.42 241.443 216.072 242.247 216.072Z" fill="white" stroke="#FE5244" stroke-width="0.839551" stroke-miterlimit="10"/>
<path d="M236.861 216.072C237.665 216.072 238.317 215.42 238.317 214.616C238.317 213.812 237.665 213.16 236.861 213.16C236.057 213.16 235.405 213.812 235.405 214.616C235.405 215.42 236.057 216.072 236.861 216.072Z" fill="white" stroke="#FE5244" stroke-width="0.839551" stroke-miterlimit="10"/>
<path d="M231.491 216.072C232.295 216.072 232.947 215.42 232.947 214.616C232.947 213.812 232.295 213.16 231.491 213.16C230.687 213.16 230.035 213.812 230.035 214.616C230.035 215.42 230.687 216.072 231.491 216.072Z" fill="#FE5244" stroke="#FE5244" stroke-width="0.839551" stroke-miterlimit="10"/>
<path d="M262.6 226.92C263.404 226.92 264.056 226.268 264.056 225.464C264.056 224.66 263.404 224.008 262.6 224.008C261.796 224.008 261.144 224.66 261.144 225.464C261.144 226.268 261.796 226.92 262.6 226.92Z" fill="white" stroke="#FE5244" stroke-width="0.839551" stroke-miterlimit="10"/>
<path d="M257.214 226.92C258.018 226.92 258.67 226.268 258.67 225.464C258.67 224.66 258.018 224.008 257.214 224.008C256.41 224.008 255.758 224.66 255.758 225.464C255.758 226.268 256.41 226.92 257.214 226.92Z" fill="white" stroke="#FE5244" stroke-width="0.839551" stroke-miterlimit="10"/>
<path d="M251.844 226.92C252.648 226.92 253.3 226.268 253.3 225.464C253.3 224.66 252.648 224.008 251.844 224.008C251.04 224.008 250.388 224.66 250.388 225.464C250.388 226.268 251.04 226.92 251.844 226.92Z" fill="#FE5244" stroke="#FE5244" stroke-width="0.839551" stroke-miterlimit="10"/>
<path d="M262.6 216.072C263.404 216.072 264.056 215.42 264.056 214.616C264.056 213.812 263.404 213.16 262.6 213.16C261.796 213.16 261.144 213.812 261.144 214.616C261.144 215.42 261.796 216.072 262.6 216.072Z" fill="#FE5244" stroke="#FE5244" stroke-width="0.839551" stroke-miterlimit="10"/>
<path d="M257.214 216.072C258.018 216.072 258.67 215.42 258.67 214.616C258.67 213.812 258.018 213.16 257.214 213.16C256.41 213.16 255.758 213.812 255.758 214.616C255.758 215.42 256.41 216.072 257.214 216.072Z" fill="white" stroke="#FE5244" stroke-width="0.839551" stroke-miterlimit="10"/>
<path d="M251.844 216.072C252.648 216.072 253.3 215.42 253.3 214.616C253.3 213.812 252.648 213.16 251.844 213.16C251.04 213.16 250.388 213.812 250.388 214.616C250.388 215.42 251.04 216.072 251.844 216.072Z" fill="white" stroke="#FE5244" stroke-width="0.839551" stroke-miterlimit="10"/>
<path d="M262.6 221.498C263.404 221.498 264.056 220.846 264.056 220.042C264.056 219.238 263.404 218.586 262.6 218.586C261.796 218.586 261.144 219.238 261.144 220.042C261.144 220.846 261.796 221.498 262.6 221.498Z" fill="white" stroke="#FE5244" stroke-width="0.839551" stroke-miterlimit="10"/>
<path d="M257.214 221.498C258.018 221.498 258.67 220.846 258.67 220.042C258.67 219.238 258.018 218.586 257.214 218.586C256.41 218.586 255.758 219.238 255.758 220.042C255.758 220.846 256.41 221.498 257.214 221.498Z" fill="#FE5244" stroke="#FE5244" stroke-width="0.839551" stroke-miterlimit="10"/>
<path d="M251.844 221.498C252.648 221.498 253.3 220.846 253.3 220.042C253.3 219.238 252.648 218.586 251.844 218.586C251.04 218.586 250.388 219.238 250.388 220.042C250.388 220.846 251.04 221.498 251.844 221.498Z" fill="white" stroke="#FE5244" stroke-width="0.839551" stroke-miterlimit="10"/>
<path d="M340.097 211.617H267.844L267.907 203.194H224.383L211.717 166.089L198.159 191.061L236.438 223.72L218.136 248.519L172.921 219.539C164.733 214.201 159.801 205.104 159.801 195.335C159.801 190.45 161.038 185.628 163.418 181.354L184.522 143.184C193.383 127.168 210.229 117.242 228.516 117.242H296.291C307.564 117.242 318.132 122.722 324.629 131.928L357.491 177.675C367.715 191.844 357.569 211.617 340.097 211.617Z" fill="white" stroke="#FE5244" stroke-width="1.00746" stroke-miterlimit="10"/>
<path d="M232.978 239.973C227.623 247.175 221.032 251.308 218.23 249.226C215.427 247.144 217.494 239.629 222.833 232.427C228.187 225.225 234.152 221.405 236.955 223.488C239.757 225.57 238.317 232.787 232.978 239.973Z" fill="#FE5244"/>
<path d="M234.355 117.305L256.039 147.349L276.048 117.305H234.355Z" stroke="#FE5244" stroke-width="1.00746" stroke-miterlimit="10"/>
<path d="M256.274 158.29C257.528 158.29 258.544 157.274 258.544 156.02C258.544 154.766 257.528 153.75 256.274 153.75C255.021 153.75 254.004 154.766 254.004 156.02C254.004 157.274 255.021 158.29 256.274 158.29Z" stroke="#FE5244" stroke-width="1.00746" stroke-miterlimit="10"/>
<path d="M256.274 172.693C257.528 172.693 258.544 171.676 258.544 170.422C258.544 169.169 257.528 168.152 256.274 168.152C255.021 168.152 254.004 169.169 254.004 170.422C254.004 171.676 255.021 172.693 256.274 172.693Z" stroke="#FE5244" stroke-width="1.00746" stroke-miterlimit="10"/>
<path d="M301.63 164.18L311.979 180.227H268.455V212.166" stroke="#FE5244" stroke-width="1.00746" stroke-miterlimit="10"/>
<path d="M311.979 180.227H323.392" stroke="#FE5244" stroke-width="1.00746" stroke-miterlimit="10"/>
<path d="M268.455 212.166C271.948 212.166 274.78 204.897 274.78 195.931C274.78 186.964 271.948 179.695 268.455 179.695C264.961 179.695 262.13 186.964 262.13 195.931C262.13 204.897 264.961 212.166 268.455 212.166Z" fill="#FE5244"/>
<path d="M274.717 180.277C278.209 180.277 281.042 187.291 281.042 195.933C281.042 204.576 278.209 211.59 274.717 211.59" stroke="#FE5244" stroke-width="1.00746" stroke-miterlimit="10"/>
<path d="M213.361 245.48C210.558 243.398 212.625 235.883 217.964 228.681C223.318 221.479 228.97 217.659 231.772 219.741" stroke="#FE5244" stroke-width="1.00746" stroke-miterlimit="10"/>
<path d="M234.512 104.33C234.622 88.8929 244.876 84.6657 261.722 86.0122C279.884 87.4682 272.447 112.455 282.529 113.285C286.757 113.63 291.579 108.839 297.998 104.893C303.29 101.324 309.662 99.2416 316.535 99.2416C334.868 99.2416 349.741 114.115 349.741 132.448C349.741 140.887 345.812 149.044 340.629 154.899C340.629 154.899 321.044 127.391 313.45 124.808C298.514 119.735 293.771 132.855 283.406 134.891C282.044 135.157 280.588 135.235 278.991 135.047C264.243 133.356 267.061 109.042 267.061 109.042C263.241 107.477 262.411 103.516 262.27 101.12C262.349 99.9618 262.302 99.1946 262.302 99.1946C262.302 99.1946 262.208 99.9774 262.27 101.12C261.957 105.629 259.202 116.416 243.843 112.549V117.794C243.843 149.56 244.36 155.729 237.925 163.714C236.97 164.903 230.582 174.501 242.027 179.683C256.775 186.352 246.364 203.903 246.364 203.903H215.161C215.161 203.903 196.64 200.615 195.027 183.8C192.726 159.768 222.864 153.334 226.794 152.598C219.153 151.424 211.685 143.893 211.685 134.765C211.685 126.671 217.901 119.829 224.289 117.575C224.304 117.575 224.304 117.575 224.32 117.559C224.508 117.497 224.696 117.434 224.884 117.371C229.878 115.649 233.557 111.86 234.371 107.273L234.512 104.33Z" fill="#FFCF2D"/>
<path d="M262.349 104.506C262.333 104.506 262.333 104.506 262.349 104.506C262.129 104.506 261.957 104.318 261.957 104.114L262.083 96.1141C262.083 95.8949 262.255 95.7227 262.474 95.7227C262.693 95.7227 262.865 95.9105 262.865 96.1141L262.74 104.114C262.724 104.334 262.552 104.506 262.349 104.506Z" fill="#EFBF9A"/>
<path d="M244.532 113.613C244.469 113.613 244.407 113.597 244.344 113.566C240.555 111.578 239.757 109.542 239.71 109.464C239.631 109.261 239.741 109.041 239.945 108.963C240.148 108.885 240.367 108.994 240.446 109.182C240.461 109.214 241.228 111.045 244.704 112.877C244.892 112.971 244.97 113.222 244.876 113.409C244.814 113.535 244.673 113.613 244.532 113.613Z" fill="#EFBF9A"/>
<path d="M297.121 100.007C299.715 100.007 301.818 97.9041 301.818 95.3101C301.818 92.7161 299.715 90.6133 297.121 90.6133C294.527 90.6133 292.424 92.7161 292.424 95.3101C292.424 97.9041 294.527 100.007 297.121 100.007Z" fill="#FFCF2D"/>
<path d="M241.839 174.281C243.923 174.281 245.612 172.591 245.612 170.508C245.612 168.424 243.923 166.734 241.839 166.734C239.755 166.734 238.066 168.424 238.066 170.508C238.066 172.591 239.755 174.281 241.839 174.281Z" fill="#FFCF2D"/>
<path d="M265.605 227.296L265.59 230.146C265.59 230.396 265.527 230.647 265.433 230.866L258.576 246.146C257.558 248.354 255.351 249.763 252.924 249.763H238.254C234.591 249.763 231.037 248.526 228.156 246.272L227.639 245.865L218.903 238.992C219.874 236.894 221.205 234.655 222.848 232.447C225.98 228.22 229.565 225.058 232.54 223.57H253.597C255.272 227.312 249.824 230.318 249.824 230.318H259.343L262.787 226.576C263.68 225.606 265.292 226.028 265.605 227.296Z" fill="#EFBF9A"/>
<path d="M260.189 241.5C259.171 243.708 256.963 245.117 254.537 245.117H242.184" stroke="#3D3D3D" stroke-width="0.839551" stroke-miterlimit="10" stroke-linecap="round"/>
<path d="M262.349 236.656C261.331 238.864 259.124 240.273 256.697 240.273H244.344" stroke="#3D3D3D" stroke-width="0.839551" stroke-miterlimit="10" stroke-linecap="round"/>
<path d="M264.682 231.273C263.664 233.481 261.457 234.89 259.03 234.89H246.677" stroke="#3D3D3D" stroke-width="0.839551" stroke-miterlimit="10" stroke-linecap="round"/>
<path d="M232.822 239.665C231.428 241.935 229.377 244.299 227.639 245.865L227.624 245.849L218.888 238.976C219.858 236.878 221.189 234.639 222.833 232.432C225.964 228.205 229.55 225.042 232.524 223.555H237.049C237.456 227.109 236.861 233.089 232.822 239.665Z" fill="#3D3D3D"/>
<path d="M247.836 191.366C247.836 191.366 255.445 171.06 258.388 171.467C261.316 171.858 251.828 189.863 251.828 189.863L247.836 191.366Z" fill="#FE5244"/>
<path d="M274.78 195.932C274.78 204.622 272.118 211.698 268.784 212.136C268.674 212.152 268.564 212.152 268.455 212.152H237.456C236.516 212.152 235.765 211.401 235.765 210.461V200.567C235.765 197.764 237.487 195.259 240.102 194.273L253.081 189.357C254.255 188.918 255.507 188.684 256.76 188.684H274.107C274.529 190.875 274.78 193.333 274.78 195.932Z" fill="#EFBF9A"/>
<path d="M249.386 196.465L239.585 200.175C237.612 200.927 236.313 202.821 236.313 204.919" stroke="#3D3D3D" stroke-width="0.839551" stroke-miterlimit="10" stroke-linecap="round"/>
<path d="M249.386 202.379L239.585 206.089C237.612 206.841 236.313 208.735 236.313 210.833" stroke="#3D3D3D" stroke-width="0.839551" stroke-miterlimit="10" stroke-linecap="round"/>
<path d="M248.853 207.906L239.053 211.617" stroke="#3D3D3D" stroke-width="0.839551" stroke-miterlimit="10" stroke-linecap="round"/>
<path d="M274.78 195.932C274.78 204.622 272.118 211.698 268.783 212.137C268.674 212.152 268.564 212.152 268.455 212.152C264.963 212.152 262.13 204.888 262.13 195.917C262.13 193.521 262.49 190.797 262.865 188.668H274.028C274.42 190.813 274.78 193.537 274.78 195.932Z" fill="#3D3D3D"/>
<path d="M272.181 112.538C272.181 113.446 271.868 114.308 271.351 114.981C270.819 115.67 270.083 116.171 269.191 116.405L267.03 116.969V119.38C267.03 125.204 262.318 129.917 256.494 129.917H254.411C248.603 129.917 243.906 125.22 243.875 119.427V112.538C259.233 116.421 261.989 105.618 262.302 101.109C262.427 103.395 263.194 107.09 266.576 108.797L267.171 108.64C269.707 108.014 272.181 109.924 272.181 112.538Z" fill="#EFBF9A"/>
<path d="M259.124 114.474C259.124 114.474 262.317 114.161 264.165 115.743" stroke="#3D3D3D" stroke-width="0.839551" stroke-miterlimit="10" stroke-linecap="round"/>
<path d="M246.724 115.367C246.724 115.367 249.073 114.099 251.703 115.257C253.268 115.946 254.302 119.641 254.333 124.526" stroke="#3D3D3D" stroke-width="0.839551" stroke-miterlimit="10" stroke-linecap="round"/>
<path d="M249.73 120.149C250.067 120.149 250.341 119.623 250.341 118.975C250.341 118.326 250.067 117.801 249.73 117.801C249.393 117.801 249.119 118.326 249.119 118.975C249.119 119.623 249.393 120.149 249.73 120.149Z" fill="#3D3D3D"/>
<path d="M261.097 120.149C261.434 120.149 261.707 119.623 261.707 118.975C261.707 118.326 261.434 117.801 261.097 117.801C260.759 117.801 260.486 118.326 260.486 118.975C260.486 119.623 260.759 120.149 261.097 120.149Z" fill="#3D3D3D"/>
<path d="M267.625 114.056C267.625 112.694 268.58 111.52 269.911 111.238" stroke="#3D3D3D" stroke-width="0.839551" stroke-miterlimit="10" stroke-linecap="round"/>
<path d="M142.235 354.603C144.098 358.986 143.55 368.004 134.172 367.879C122.539 367.722 122.837 336.379 122.837 336.379C122.837 336.379 134.72 336.927 142.235 354.603Z" fill="#3FB1B5"/>
<path d="M33.8941 344.002C30.982 350.17 34.8961 355.133 38.1838 353.427C43.9297 350.437 46.4033 342.749 46.4033 342.749C46.4033 342.749 36.5086 338.491 33.8941 344.002Z" fill="#3FB1B5"/>
<path d="M142.078 354.6C135.847 342.122 128.818 336.189 117.561 336.189C98.6012 336.189 86.4364 356.479 84.1193 382.719C83.8375 379.462 80.4714 376.127 80.2209 372.746C76.8392 327.813 101.466 310.09 119.941 310.09C135.064 310.074 138.838 331.805 142.078 354.6Z" fill="white" stroke="#3FB1B5" stroke-width="1.00746" stroke-miterlimit="10"/>
<path d="M80.2366 383.347C76.8549 338.414 102.625 320.691 119.643 320.691C129.084 320.691 135.002 326.265 139.558 338.946" stroke="#3FB1B5" stroke-width="1.00746" stroke-miterlimit="10"/>
<path d="M9.29863 291.131C4.24169 296.141 -4.9015 316.682 6.41789 320.753C17.7373 324.839 30.998 284.618 30.998 284.618C30.998 284.618 21.4008 279.123 9.29863 291.131Z" fill="#FFCF2D" stroke="#FFCF2D" stroke-width="1.00746" stroke-miterlimit="10"/>
<path d="M102.625 384.455L98.5853 406.358C96.55 417.349 86.9684 425.334 75.7899 425.334C64.6115 425.334 55.0299 417.349 52.9946 406.358L48.9553 384.455C48.9553 383.359 49.2058 382.31 49.6442 381.371C52.885 384.628 63.4216 387.007 75.8995 387.007C88.2053 387.007 98.6009 384.69 102.014 381.528C102.405 382.42 102.625 383.422 102.625 384.455Z" fill="#CEEAA3"/>
<path d="M99.9784 379.261C99.9784 382.361 89.1913 384.866 75.8836 384.866C62.5759 384.866 51.7888 382.361 51.7888 379.261C51.7888 379.011 51.8515 378.776 51.9924 378.541C53.5267 375.785 63.6405 373.672 75.8836 373.672C88.5025 373.672 98.8512 375.926 99.8845 378.791C99.9471 378.948 99.9784 379.105 99.9784 379.261Z" fill="#8FCBFF"/>
<path d="M84.5263 346.585C84.5263 359.549 82.7415 371.792 79.5633 382.563H70.4201C70.3888 328.127 50.5368 284.023 26.0663 284.023C19.7099 284.023 13.6666 286.998 8.20264 292.352C24.2971 273.518 30.9823 268.352 40.1725 268.352C62.1224 268.352 84.5263 303.374 84.5263 346.585Z" fill="white" stroke="#FFCF2D" stroke-width="1.00746" stroke-miterlimit="10"/>
<path d="M18.4419 280.878C23.671 277.074 27.0371 275.305 33.0334 275.305C57.5196 275.305 82.3033 316.167 75.7747 382.549" stroke="#FFCF2D" stroke-width="1.00746" stroke-miterlimit="10"/>
<path d="M75.8372 382.551C75.8372 382.551 77.1837 331.434 49.3314 331.262C41.9573 331.215 35.053 342.91 35.053 342.91C35.053 342.91 67.6647 334.393 69.2773 382.551H75.8372Z" fill="white" stroke="#3FB1B5" stroke-width="1.00746" stroke-miterlimit="10"/>
<path d="M72.4243 382.705C72.8157 368.302 69.1834 333.545 41.0337 335.408" stroke="#3FB1B5" stroke-width="1.00746" stroke-miterlimit="10"/>
<path d="M34.9275 294.42C36.3542 294.42 37.5108 293.264 37.5108 291.837C37.5108 290.41 36.3542 289.254 34.9275 289.254C33.5008 289.254 32.3442 290.41 32.3442 291.837C32.3442 293.264 33.5008 294.42 34.9275 294.42Z" fill="white" stroke="#FFCF2D" stroke-width="1.00746" stroke-miterlimit="10"/>
<path d="M95.8144 368.3C97.8982 368.3 99.5875 366.611 99.5875 364.527C99.5875 362.443 97.8982 360.754 95.8144 360.754C93.7305 360.754 92.0413 362.443 92.0413 364.527C92.0413 366.611 93.7305 368.3 95.8144 368.3Z" fill="white" stroke="#FFCF2D" stroke-width="1.00746" stroke-miterlimit="10"/>
<path d="M89.5518 295.513C93.486 295.513 96.6753 292.323 96.6753 288.389C96.6753 284.455 93.486 281.266 89.5518 281.266C85.6175 281.266 82.4282 284.455 82.4282 288.389C82.4282 292.323 85.6175 295.513 89.5518 295.513Z" fill="#CEEAA3"/>
<path d="M108.261 450.15L101.951 418.728C101.419 416.051 97.8495 415.425 96.4405 417.773C87.7356 432.255 64.0949 432.349 55.2492 417.914L55.0926 417.648C53.6679 415.331 50.1296 415.957 49.5973 418.619L43.2722 450.134" stroke="#8FCBFF" stroke-width="1.00746" stroke-miterlimit="10"/>
<path d="M75.7744 428.699V450.289" stroke="#8FCBFF" stroke-width="1.00746" stroke-miterlimit="10"/>
<path d="M28.947 450.156H238.802" stroke="#8FCBFF" stroke-width="1.00746" stroke-miterlimit="10"/>
</svg>
