<svg width="502" height="460" viewBox="0 0 502 460" fill="none" xmlns="http://www.w3.org/2000/svg">
<path d="M315.34 14.1406L350.219 47.8041L385.275 237.571H56.4479L315.34 14.1406Z" fill="#FFCF2D"/>
<path d="M350.519 47.5428L315.533 13.7735L321.385 7.69296C330.003 -1.26048 345.531 -0.23823 354.484 8.36271C363.438 16.9813 365.006 32.5088 356.388 41.4622L350.519 47.5428Z" fill="white" stroke="#FFCF2D" stroke-width="0.967051" stroke-miterlimit="10" stroke-linecap="round"/>
<path d="M356.37 41.4607L321.367 7.69141" stroke="#FFCF2D" stroke-width="0.967051" stroke-miterlimit="10" stroke-linecap="round"/>
<path d="M356.406 9.89085L360.318 6.89462C365.57 2.87615 373.114 3.93364 377.044 9.27398L473.206 126.338L423.979 236.124" stroke="#3FB1B5" stroke-width="0.967051" stroke-miterlimit="10" stroke-linecap="round"/>
<path d="M471.637 132.314C474.616 132.314 477.03 129.899 477.03 126.921C477.03 123.942 474.616 121.527 471.637 121.527C468.658 121.527 466.244 123.942 466.244 126.921C466.244 129.899 468.658 132.314 471.637 132.314Z" fill="white" stroke="#FFCF2D" stroke-width="0.967051" stroke-miterlimit="10" stroke-linecap="round"/>
<path d="M410.302 223.859H436.581C444.142 223.859 450.258 229.993 450.258 237.536V237.924H396.608V237.536C396.626 229.993 402.741 223.859 410.302 223.859Z" fill="white" stroke="#FFCF2D" stroke-width="0.967051" stroke-miterlimit="10" stroke-linecap="round"/>
<path d="M282.998 197.892H116.637C110.38 197.892 105.322 192.834 105.322 186.577V70.2175C105.322 63.9607 110.38 58.9023 116.637 58.9023H282.998C289.255 58.9023 294.313 63.9607 294.313 70.2175V186.559C294.331 192.816 289.255 197.892 282.998 197.892Z" fill="white" stroke="#3FB1B5" stroke-width="0.967051" stroke-miterlimit="10" stroke-linecap="round"/>
<path d="M283.104 187.069H118.346C115.897 187.069 113.923 185.077 113.923 182.645V71.3262C113.923 68.8763 115.914 66.9023 118.346 66.9023H283.104C285.554 66.9023 287.528 68.894 287.528 71.3262V182.627C287.545 185.077 285.554 187.069 283.104 187.069Z" fill="#448DF7" stroke="#448DF7" stroke-width="0.967051" stroke-miterlimit="10" stroke-linejoin="round"/>
<path d="M124.251 77.3003H121.642C120.796 77.3003 120.091 76.6129 120.091 75.7493V73.1408C120.091 72.2948 120.779 71.5898 121.642 71.5898H124.251C125.097 71.5898 125.802 72.2772 125.802 73.1408V75.7493C125.784 76.6129 125.097 77.3003 124.251 77.3003Z" stroke="white" stroke-width="0.967051" stroke-miterlimit="10" stroke-linecap="round"/>
<path d="M136.112 77.3003H133.504C132.658 77.3003 131.953 76.6129 131.953 75.7493V73.1408C131.953 72.2948 132.64 71.5898 133.504 71.5898H136.112C136.958 71.5898 137.663 72.2772 137.663 73.1408V75.7493C137.663 76.6129 136.958 77.3003 136.112 77.3003Z" stroke="white" stroke-width="0.967051" stroke-miterlimit="10" stroke-linecap="round"/>
<path d="M147.974 77.3003H145.365C144.519 77.3003 143.814 76.6129 143.814 75.7493V73.1408C143.814 72.2948 144.502 71.5898 145.365 71.5898H147.974C148.82 71.5898 149.525 72.2772 149.525 73.1408V75.7493C149.525 76.6129 148.837 77.3003 147.974 77.3003Z" stroke="white" stroke-width="0.967051" stroke-miterlimit="10" stroke-linecap="round"/>
<path d="M234.935 237.568H170.358L183.03 197.895H222.245L234.935 237.568Z" fill="white" stroke="#3FB1B5" stroke-width="0.967051" stroke-miterlimit="10" stroke-linecap="round"/>
<path d="M175.434 221.688L183.03 197.895H222.245L175.434 221.688Z" fill="#3FB1B5"/>
<path d="M273.516 103.41H242.126C239.183 103.41 236.803 101.031 236.803 98.0874V77.8188C236.803 74.8755 239.183 72.4961 242.126 72.4961H273.516C276.459 72.4961 278.839 74.8755 278.839 77.8188V98.0874C278.839 101.031 276.459 103.41 273.516 103.41Z" stroke="white" stroke-width="0.967051" stroke-miterlimit="10" stroke-linecap="round"/>
<path d="M245.774 79.7227H269.726" stroke="white" stroke-width="0.967051" stroke-miterlimit="10" stroke-linecap="round"/>
<path d="M245.774 85.1875H269.726" stroke="white" stroke-width="0.967051" stroke-miterlimit="10" stroke-linecap="round"/>
<path d="M245.774 90.6523H269.726" stroke="white" stroke-width="0.967051" stroke-miterlimit="10" stroke-linecap="round"/>
<path d="M245.774 96.1133H269.726" stroke="white" stroke-width="0.967051" stroke-miterlimit="10" stroke-linecap="round"/>
<path d="M282.187 187.079H157.421L150.107 197.566C141.84 209.409 124.374 209.586 115.879 197.9L71.3233 136.619C73.1916 138.945 81.7397 136.354 89.8823 130.996C98.1484 125.55 103.489 118.694 101.814 116.156L132.711 155.53L142.175 138.822C144.766 134.398 149.067 131.225 154.072 130.062L186.273 123.241H214.032L244.629 129.992C249.951 131.208 254.463 134.68 257.019 139.492L282.187 187.079Z" fill="white" stroke="#3FB1B5" stroke-width="0.967051" stroke-miterlimit="10"/>
<path d="M247.942 186.357L239.077 168.855" stroke="#3FB1B5" stroke-width="0.967051" stroke-miterlimit="10" stroke-linecap="round"/>
<path d="M156.716 187.997L165.493 170.672" stroke="#3FB1B5" stroke-width="0.967051" stroke-miterlimit="10" stroke-linecap="round"/>
<path d="M120.691 140.25L140.801 165.965" stroke="#3FB1B5" stroke-width="0.967051" stroke-miterlimit="10" stroke-linecap="round"/>
<path d="M203.616 131.699L211.018 140.705L227.585 126.641" stroke="#3FB1B5" stroke-width="0.967051" stroke-miterlimit="10" stroke-linecap="round"/>
<path d="M197.958 131.875L190.767 141.058L172.561 126.641" stroke="#3FB1B5" stroke-width="0.967051" stroke-miterlimit="10" stroke-linecap="round"/>
<path d="M107.948 124.035C109.622 126.591 104.264 133.535 95.9453 139.052C87.7674 144.48 79.0959 147.088 77.2101 144.744" stroke="#3FB1B5" stroke-width="0.967051" stroke-miterlimit="10" stroke-linecap="round"/>
<path d="M102.414 128.495C103.514 128.495 104.405 127.603 104.405 126.503C104.405 125.403 103.514 124.512 102.414 124.512C101.314 124.512 100.422 125.403 100.422 126.503C100.422 127.603 101.314 128.495 102.414 128.495Z" stroke="#3FB1B5" stroke-width="0.967051" stroke-miterlimit="10" stroke-linecap="round"/>
<path d="M200.76 141.003C201.86 141.003 202.752 140.111 202.752 139.011C202.752 137.911 201.86 137.02 200.76 137.02C199.66 137.02 198.769 137.911 198.769 139.011C198.769 140.111 199.66 141.003 200.76 141.003Z" stroke="#3FB1B5" stroke-width="0.967051" stroke-miterlimit="10" stroke-linecap="round"/>
<path d="M200.76 157.05C201.86 157.05 202.752 156.158 202.752 155.058C202.752 153.958 201.86 153.066 200.76 153.066C199.66 153.066 198.769 153.958 198.769 155.058C198.769 156.158 199.66 157.05 200.76 157.05Z" stroke="#3FB1B5" stroke-width="0.967051" stroke-miterlimit="10" stroke-linecap="round"/>
<path d="M149.472 198.415L157.421 187.082V198.415H149.472Z" fill="#3FB1B5"/>
<path d="M89.6885 130.461C81.5458 135.819 72.9978 138.41 71.1295 136.084C71.0943 136.048 71.0766 136.013 71.0414 135.96C70.6536 135.379 70.6889 134.585 71.0414 133.616C72.2575 130.426 77.2806 125.491 83.6608 121.296C88.7368 117.948 93.7422 115.621 97.2143 114.898C99.2236 114.493 100.722 114.616 101.444 115.392L101.621 115.603C103.277 118.141 97.9546 125.015 89.6885 130.461Z" fill="#FE5244"/>
<path d="M89.6885 130.464C85.0532 133.513 80.2768 135.681 76.6813 136.527L60.5899 113.826C58.3515 110.653 59.0917 106.265 62.2818 104.026L76.7695 93.8392L68.5563 79.8627C67.3578 77.8358 68.0452 75.2097 70.0896 74.0288C70.7594 73.6411 71.482 73.4648 72.2046 73.4648C73.597 73.4648 74.9717 74.1522 75.7825 75.4212L101.462 115.359L101.638 115.641C103.277 118.144 97.9546 125.018 89.6885 130.464Z" fill="#E57281"/>
<path d="M76.7342 94L85.7053 107.906C86.5337 109.21 86.1635 110.938 84.8593 111.784L82.8677 113.088C81.5634 113.951 79.801 113.581 78.955 112.277L70.4774 99.5871" stroke="#3D3D3D" stroke-width="0.967051" stroke-miterlimit="10" stroke-linecap="round"/>
<path d="M78.9197 112.238C79.7833 113.56 79.3956 115.34 78.0737 116.186L76.2583 117.332C74.9541 118.16 73.2269 117.79 72.3809 116.504" stroke="#3D3D3D" stroke-width="0.967051" stroke-miterlimit="10" stroke-linecap="round"/>
<path d="M64.0443 104.062L72.3456 116.4C73.2093 117.722 72.8391 119.502 71.482 120.348L69.79 121.282C68.521 122.093 66.8467 121.758 65.9654 120.524L61.1538 113.739" stroke="#3D3D3D" stroke-width="0.967051" stroke-miterlimit="10" stroke-linecap="round"/>
<path d="M95.4694 106.052L91.2571 99.5129C89.8647 97.345 86.9566 96.7458 84.824 98.191L74.3725 105.276C74.3725 105.276 77.4039 110.722 84.7711 106.404L87.2386 110.335C82.1979 113.525 80.7527 120.24 84.0309 125.228L95.4694 106.052Z" fill="#E57281"/>
<path d="M94.9231 106.231L90.7107 99.6925C89.3183 97.5247 86.4102 96.9254 84.2776 98.3707L74.3725 105.28C74.3725 105.28 77.4039 110.726 84.7711 106.408L87.2386 110.338C82.1979 113.528 80.7527 120.243 84.0309 125.231" stroke="#3D3D3D" stroke-width="0.967051" stroke-miterlimit="10" stroke-linecap="round"/>
<path d="M89.6885 130.463C85.0532 133.512 80.2768 135.68 76.6813 136.526L72.6805 130.886C74.9189 127.96 78.9197 124.435 83.6608 121.316C88.7368 117.967 93.7422 115.641 97.2143 114.918C99.2236 114.513 100.722 114.636 101.444 115.411L101.621 115.623C101.638 115.658 101.656 115.676 101.673 115.711C101.691 115.729 101.691 115.746 101.709 115.782C101.726 115.817 101.744 115.834 101.762 115.87C102.96 118.566 97.6902 125.176 89.6885 130.463Z" fill="#3D3D3D"/>
<path d="M214.014 107.727V123.219C214.014 127.713 207.775 131.344 200.108 131.344C192.424 131.344 186.202 127.713 186.202 123.219V107.727H214.014Z" fill="#E57281"/>
<path d="M190.274 128.965C187.753 127.502 186.185 125.457 186.185 123.219V107.727H214.014V112.027C214.014 116.486 211.3 120.487 207.176 122.161L190.274 128.965Z" fill="#3D3D3D"/>
<path d="M221.769 106.806V107.07C221.769 109.749 219.601 111.917 216.922 111.917H213.732C212.657 116.253 208.744 119.478 204.056 119.478H196.16C191.49 119.478 187.559 116.271 186.502 111.917H183.312C180.633 111.917 178.465 109.749 178.465 107.07V106.806C178.465 104.127 180.633 101.959 183.312 101.959H186.202V98.1346C186.202 94.0456 189.216 90.6617 193.146 90.0977C194.01 91.5429 196.619 94.9974 201.941 94.8035C204.444 94.7154 206.77 94.2395 208.692 93.6755C211 93.0058 213.309 94.4157 213.891 96.6189C213.979 97.1124 214.032 97.6059 214.032 98.117V101.942H216.922C219.584 101.942 221.769 104.127 221.769 106.806Z" fill="#E57281"/>
<path d="M216.235 101.942H214.014V97.6945C214.014 97.3244 213.961 96.9543 213.873 96.6194C213.292 94.4163 210.983 93.0063 208.674 93.6761C206.753 94.2401 204.444 94.7159 201.924 94.8041C196.601 94.9979 193.992 91.5435 193.129 90.0982C189.198 90.6622 186.185 94.0462 186.185 98.1352V101.96H183.418C183.418 101.96 180.245 90.486 182.624 87.243C184.968 84.0529 187.788 85.4452 187.788 85.4452C187.788 85.4452 186.096 75.8926 195.543 76.0688C204.973 76.2451 217.24 87.1901 218.139 89.1993C219.548 92.2837 216.235 101.942 216.235 101.942Z" fill="#3D3D3D"/>
<path d="M215.089 107.706C215.089 105.82 216.623 104.305 218.491 104.305" stroke="#3D3D3D" stroke-width="0.805876" stroke-miterlimit="10" stroke-linecap="round"/>
<path d="M185.162 107.706C185.162 105.82 183.629 104.305 181.761 104.305" stroke="#3D3D3D" stroke-width="0.805876" stroke-miterlimit="10" stroke-linecap="round"/>
<path d="M209.573 98.1425C209.573 98.1425 207.07 96.3095 203.88 97.6314" stroke="#3D3D3D" stroke-width="0.805876" stroke-miterlimit="10" stroke-linecap="round"/>
<path d="M190.467 98.1425C190.467 98.1425 192.97 96.3095 196.16 97.6314" stroke="#3D3D3D" stroke-width="0.805876" stroke-miterlimit="10" stroke-linecap="round"/>
<path d="M204.497 111.148C204.497 111.148 203.14 114.074 198.98 112.541" stroke="#3D3D3D" stroke-width="0.805876" stroke-miterlimit="10" stroke-linecap="round"/>
<path d="M198.786 109.629C199.861 109.699 201.501 109.629 201.501 109.629" stroke="#3D3D3D" stroke-width="0.805876" stroke-miterlimit="10" stroke-linecap="round"/>
<path d="M206.735 105.496C207.222 105.496 207.616 104.833 207.616 104.016C207.616 103.198 207.222 102.535 206.735 102.535C206.248 102.535 205.854 103.198 205.854 104.016C205.854 104.833 206.248 105.496 206.735 105.496Z" fill="#3D3D3D"/>
<path d="M194.098 105.496C194.585 105.496 194.979 104.833 194.979 104.016C194.979 103.198 194.585 102.535 194.098 102.535C193.611 102.535 193.217 103.198 193.217 104.016C193.217 104.833 193.611 105.496 194.098 105.496Z" fill="#3D3D3D"/>
<path d="M196.196 108.992H190.644C189.569 108.992 188.705 108.128 188.705 107.053V101.501C188.705 100.426 189.569 99.5625 190.644 99.5625H196.196C197.271 99.5625 198.134 100.426 198.134 101.501V107.053C198.152 108.111 197.271 108.992 196.196 108.992Z" stroke="white" stroke-width="0.805876" stroke-miterlimit="10"/>
<path d="M209.784 108.992H204.233C203.157 108.992 202.294 108.128 202.294 107.053V101.501C202.294 100.426 203.157 99.5625 204.233 99.5625H209.784C210.859 99.5625 211.723 100.426 211.723 101.501V107.053C211.723 108.111 210.859 108.992 209.784 108.992Z" stroke="white" stroke-width="0.805876" stroke-miterlimit="10"/>
<path d="M198.152 103.234H202.294" stroke="white" stroke-width="0.805876" stroke-miterlimit="10"/>
<path d="M211.247 180.23H191.983C190.238 180.23 188.811 178.82 188.811 177.057V166.817C188.811 165.072 190.221 163.645 191.983 163.645H211.247C212.992 163.645 214.42 165.055 214.42 166.817V177.057C214.42 178.802 213.01 180.23 211.247 180.23Z" stroke="#448DF7" stroke-width="0.967051" stroke-miterlimit="10" stroke-linejoin="round"/>
<path d="M202.1 176.106H195.579C194.539 176.106 193.693 175.26 193.693 174.22V169.655C193.693 168.616 194.539 167.77 195.579 167.77H202.1C203.14 167.77 203.986 168.616 203.986 169.655V174.22C203.986 175.26 203.14 176.106 202.1 176.106Z" fill="#448DF7"/>
<path d="M208.445 175.988L206.436 174.649C205.889 174.279 205.554 173.644 205.554 172.957V170.947C205.554 170.26 205.889 169.626 206.436 169.255L208.445 167.916C208.921 167.599 209.538 167.951 209.538 168.55V175.371C209.555 175.953 208.921 176.305 208.445 175.988Z" fill="#448DF7"/>
<path d="M468.887 237.922H1" stroke="#3FB1B5" stroke-width="0.967051" stroke-miterlimit="10" stroke-linecap="round"/>
<path d="M151.64 241.004V458.601H139.355V417.182C139.355 413.322 136.218 410.185 132.358 410.185H44.4276C40.5678 410.185 37.4305 413.322 37.4305 417.182V458.601H25.146V241.004H151.64Z" fill="white" stroke="#3FB1B5" stroke-width="0.967051" stroke-miterlimit="10" stroke-linecap="round"/>
<path d="M152.01 241.004V298.743L25.146 403.206L25.1636 241.004H152.01Z" fill="#D0F0E4"/>
<path d="M139.355 257.576V297.038C139.355 300.704 136.394 303.665 132.728 303.665H44.0751C40.4092 303.665 37.4482 300.704 37.4482 297.038V257.576C37.4482 253.91 40.4092 250.949 44.0751 250.949H132.728C136.394 250.949 139.355 253.91 139.355 257.576Z" stroke="#3FB1B5" stroke-width="0.967051" stroke-miterlimit="10" stroke-linecap="round"/>
<path d="M110.944 333.551H67.3047L65.4893 321.055H109.146L110.944 333.551Z" fill="#FFCF2D"/>
<path d="M134.226 313.848C128.78 313.848 124.374 318.254 124.374 323.7V333.552H87.2384V323.7C87.2384 318.254 91.6447 313.848 97.0908 313.848H134.226Z" fill="white" stroke="#3FB1B5" stroke-width="0.967051" stroke-miterlimit="10" stroke-linecap="round"/>
<path d="M143.479 321.056H106.344C105.198 316.897 101.374 313.848 96.844 313.848H133.98C138.509 313.848 142.316 316.897 143.479 321.056Z" fill="white" stroke="#3FB1B5" stroke-width="0.967051" stroke-miterlimit="10" stroke-linecap="round"/>
<path d="M139.355 340.182V379.644C139.355 383.31 136.394 386.271 132.728 386.271H44.0751C40.4092 386.271 37.4482 383.31 37.4482 379.644V340.182C37.4482 336.516 40.4092 333.555 44.0751 333.555H132.728C136.394 333.555 139.355 336.516 139.355 340.182Z" stroke="#3FB1B5" stroke-width="0.967051" stroke-miterlimit="10" stroke-linecap="round"/>
<path d="M70.2481 276.513C70.2481 273.376 72.7861 270.82 75.9409 270.82H100.88C104.017 270.82 106.573 273.358 106.573 276.513" stroke="#3FB1B5" stroke-width="0.967051" stroke-miterlimit="10" stroke-linecap="round"/>
<path d="M70.2481 359.122C70.2481 355.985 72.7861 353.43 75.9409 353.43H100.88C104.017 353.43 106.573 355.968 106.573 359.122" stroke="#3FB1B5" stroke-width="0.967051" stroke-miterlimit="10" stroke-linecap="round"/>
<path d="M450.258 241.008H437.163V459.08H450.258V241.008Z" fill="white" stroke="#3FB1B5" stroke-width="0.967051" stroke-miterlimit="10" stroke-linecap="round"/>
<path d="M227.709 459.078H501" stroke="#3FB1B5" stroke-width="0.967051" stroke-miterlimit="10" stroke-linecap="round"/>
<path d="M62.3346 208.014H54.4211C54.4211 208.014 43.1235 160.938 33.2007 159.405C23.2779 157.872 22.7668 175.99 22.7668 175.99C22.7668 175.99 22.943 148.442 47.7412 152.214C72.5571 155.986 62.3346 208.014 62.3346 208.014Z" fill="white" stroke="#3FB1B5" stroke-width="0.967051" stroke-miterlimit="10" stroke-linecap="round"/>
<path d="M35.2275 153.413C35.2275 153.413 57.8402 145.059 58.8625 207.31" stroke="#3FB1B5" stroke-width="0.967051" stroke-miterlimit="10" stroke-linecap="round"/>
<path d="M83.8898 207.312H46.7189V237.574H83.8898V207.312Z" fill="#FE5244"/>
<path d="M91.7152 222.446C89.3535 223.468 86.5335 223.345 83.9074 222.199C81.9687 221.353 80.1357 219.961 78.6552 218.057C76.6107 215.413 75.236 211.8 75.236 207.306C75.236 196.414 66.5645 189.575 63.0043 203.993C62.7576 204.997 62.5284 206.09 62.3346 207.306V207.271V207.2C62.3346 207.165 62.3346 207.112 62.3522 207.059V206.989C62.4227 206.09 62.6871 203.429 63.4978 200.221C64.0971 197.841 64.9959 195.198 66.3354 192.748C67.0052 191.532 67.7807 190.369 68.6972 189.329C71.0589 186.614 74.3019 184.711 78.7257 184.711C86.8684 184.711 92.8256 194.299 95.0992 203.852C97.0908 212.153 96.2801 220.454 91.7152 222.446Z" fill="white" stroke="#3FB1B5" stroke-width="0.967051" stroke-miterlimit="10" stroke-linecap="round"/>
<path d="M68.7148 189.332C68.7148 189.332 85.0354 177.717 89.8294 222.784" stroke="#3FB1B5" stroke-width="0.967051" stroke-miterlimit="10" stroke-linecap="round"/>
<path d="M22.238 175.99C22.238 178.898 21.9031 190.02 32.5133 190.531C43.1235 191.042 44.181 175.021 44.181 175.021C44.181 175.021 38.964 160.85 33.2007 159.405C23.4541 156.955 22.238 175.99 22.238 175.99Z" fill="#3FB1B5"/>
<path d="M75.236 207.313H62.3346C65.3132 188.649 75.236 195.663 75.236 207.313Z" fill="#3FB1B5"/>
<path opacity="0.4" d="M294.331 70.2136V186.555C294.331 192.812 289.255 197.871 283.016 197.871H149.86C141.506 209.38 124.286 209.432 115.861 197.871L115.844 197.853C112.495 197.624 109.534 195.914 107.63 193.394L110.697 190.75L188.952 123.212L263.47 58.8984H283.016C289.255 58.8984 294.331 63.9744 294.331 70.2136Z" fill="white"/>
<path opacity="0.4" d="M91.7152 222.971C89.3711 224.028 86.5335 223.87 83.9074 222.724V237.564H56.4655L78.6728 218.406L83.925 213.876L87.9259 210.422L95.6632 203.848C97.9192 213.471 96.6678 220.697 91.7152 222.971Z" fill="white"/>
<path d="M325.403 301.27V399.37H302.738L288.303 359.062L267.629 301.27H325.403Z" fill="#EFBF9A"/>
<path d="M267.629 301.27H325.403V332.765L274.503 320.463L267.629 301.27Z" fill="#3D3D3D"/>
<path d="M325.403 359.059V399.367H302.738L288.303 359.059C288.303 359.059 299.988 365.509 325.403 359.059Z" stroke="white" stroke-width="0.967051" stroke-miterlimit="10" stroke-linecap="round"/>
<path d="M300.094 368.525C301.515 368.525 302.667 367.373 302.667 365.952C302.667 364.531 301.515 363.379 300.094 363.379C298.673 363.379 297.521 364.531 297.521 365.952C297.521 367.373 298.673 368.525 300.094 368.525Z" stroke="white" stroke-width="0.967051" stroke-miterlimit="10" stroke-linecap="round"/>
<path d="M312.361 376.826C313.782 376.826 314.934 375.674 314.934 374.253C314.934 372.832 313.782 371.68 312.361 371.68C310.94 371.68 309.788 372.832 309.788 374.253C309.788 375.674 310.94 376.826 312.361 376.826Z" stroke="white" stroke-width="0.967051" stroke-miterlimit="10" stroke-linecap="round"/>
<path d="M321.491 367.607C322.912 367.607 324.064 366.455 324.064 365.034C324.064 363.613 322.912 362.461 321.491 362.461C320.07 362.461 318.918 363.613 318.918 365.034C318.918 366.455 320.07 367.607 321.491 367.607Z" stroke="white" stroke-width="0.967051" stroke-miterlimit="10" stroke-linecap="round"/>
<path d="M317.878 386.482C319.299 386.482 320.451 385.33 320.451 383.909C320.451 382.488 319.299 381.336 317.878 381.336C316.457 381.336 315.304 382.488 315.304 383.909C315.304 385.33 316.457 386.482 317.878 386.482Z" stroke="white" stroke-width="0.967051" stroke-miterlimit="10" stroke-linecap="round"/>
<path d="M302.667 381.791C304.089 381.791 305.241 380.639 305.241 379.218C305.241 377.797 304.089 376.645 302.667 376.645C301.246 376.645 300.094 377.797 300.094 379.218C300.094 380.639 301.246 381.791 302.667 381.791Z" stroke="white" stroke-width="0.967051" stroke-miterlimit="10" stroke-linecap="round"/>
<path d="M306.862 395.893C308.283 395.893 309.435 394.74 309.435 393.319C309.435 391.898 308.283 390.746 306.862 390.746C305.441 390.746 304.289 391.898 304.289 393.319C304.289 394.74 305.441 395.893 306.862 395.893Z" stroke="white" stroke-width="0.967051" stroke-miterlimit="10" stroke-linecap="round"/>
<path d="M336.119 417.663L320.574 449.934C318.371 455.133 313.278 458.517 307.62 458.517H287.792C282.716 458.517 279.632 453.371 281.57 448.683L301.504 400.602C302.615 397.676 304.571 395.244 307.021 393.534C309.488 391.825 312.449 390.855 315.569 390.855C319.905 390.855 324.205 393.799 327.06 397.059L333.969 404.515C337.159 408.145 337.988 413.239 336.119 417.663Z" fill="#448DF7"/>
<path d="M336.119 417.663L320.574 449.935C318.371 455.134 313.278 458.518 307.62 458.518H286.541C284.584 458.518 283.474 457.302 282.822 455.627H287.51C293.168 455.627 298.261 452.243 300.464 447.044L318.389 409.662C320.063 406.172 323.606 403.934 327.483 403.934C332.542 403.934 336.384 407.635 337.089 412.323C337.159 414.121 336.842 415.936 336.119 417.663Z" fill="white" stroke="#448DF7" stroke-width="0.967051" stroke-miterlimit="10" stroke-linejoin="round"/>
<path d="M332.542 402.968C330.673 401.946 328.417 401.206 326.443 401.206C322.654 401.206 319.147 403.409 317.508 406.828L298.949 445.532C296.587 451.12 291.123 454.733 285.043 454.733H281.623C281.447 454.398 281.324 454.045 281.2 453.675H285.043C290.7 453.675 295.776 450.309 297.979 445.11L297.997 445.092L316.573 406.37C318.389 402.581 322.266 400.148 326.461 400.148C327.8 400.148 329.404 400.589 330.779 401.065L332.542 402.968Z" fill="white"/>
<path d="M267.629 301.263L263.205 359.055L261.231 384.946C261.231 384.946 248.347 399.292 233.684 390.445L226.898 359.072L211.37 287.286C207.176 267.881 220.43 249.005 240.117 246.379L267.629 301.263Z" fill="#EFBF9A"/>
<path d="M263.205 359.059L261.231 385.655C261.231 385.655 248.347 400.001 233.684 391.153L226.898 359.076C243.941 364.187 263.205 359.059 263.205 359.059Z" stroke="white" stroke-width="0.967051" stroke-miterlimit="10" stroke-linecap="round"/>
<path d="M242.954 375.041C244.375 375.041 245.528 373.889 245.528 372.468C245.528 371.047 244.375 369.895 242.954 369.895C241.533 369.895 240.381 371.047 240.381 372.468C240.381 373.889 241.533 375.041 242.954 375.041Z" stroke="white" stroke-width="0.967051" stroke-miterlimit="10" stroke-linecap="round"/>
<path d="M259.31 371.096C260.731 371.096 261.883 369.944 261.883 368.522C261.883 367.101 260.731 365.949 259.31 365.949C257.889 365.949 256.737 367.101 256.737 368.522C256.737 369.944 257.889 371.096 259.31 371.096Z" stroke="white" stroke-width="0.967051" stroke-miterlimit="10" stroke-linecap="round"/>
<path d="M233.084 367.607C234.506 367.607 235.658 366.455 235.658 365.034C235.658 363.613 234.506 362.461 233.084 362.461C231.663 362.461 230.511 363.613 230.511 365.034C230.511 366.455 231.663 367.607 233.084 367.607Z" stroke="white" stroke-width="0.967051" stroke-miterlimit="10" stroke-linecap="round"/>
<path d="M240.381 389.057C241.802 389.057 242.954 387.905 242.954 386.483C242.954 385.062 241.802 383.91 240.381 383.91C238.96 383.91 237.808 385.062 237.808 386.483C237.808 387.905 238.96 389.057 240.381 389.057Z" stroke="white" stroke-width="0.967051" stroke-miterlimit="10" stroke-linecap="round"/>
<path d="M252.384 383.908C253.805 383.908 254.957 382.756 254.957 381.335C254.957 379.914 253.805 378.762 252.384 378.762C250.962 378.762 249.81 379.914 249.81 381.335C249.81 382.756 250.962 383.908 252.384 383.908Z" stroke="white" stroke-width="0.967051" stroke-miterlimit="10" stroke-linecap="round"/>
<path d="M278.222 391.116L261.231 459.06H255.873C255.627 459.06 255.397 459.042 255.151 459.025C251.097 458.655 247.678 455.235 246.814 451.199L233.666 390.411C248.33 399.276 261.231 384.93 261.231 384.93L278.222 391.116Z" fill="#448DF7"/>
<path d="M279.085 425.977C282.663 407.083 283.65 392.648 277.481 391.485C271.313 390.322 260.332 402.853 256.755 421.747C253.177 440.641 255.045 457.349 261.214 458.512C267.382 459.693 275.507 444.888 279.085 425.977Z" fill="white" stroke="#448DF7" stroke-width="0.967051" stroke-miterlimit="10" stroke-linejoin="round"/>
<path d="M254.287 421.445C252.437 431.244 251.89 440.709 252.771 448.111C253.406 453.434 254.745 457.223 256.578 459.056H255.873C255.627 459.056 255.397 459.039 255.151 459.021C253.494 456.836 252.313 453.17 251.714 448.235C250.815 440.744 251.361 431.156 253.247 421.251C255.027 411.874 258.623 403.08 263.399 396.47C266.254 392.522 269.251 389.755 271.982 388.504L273.569 389.033C267.277 390.901 257.724 403.309 254.287 421.445Z" fill="white"/>
<path d="M240.117 246.354L320.521 238.07L400.891 260.613L400.203 271.293C399.111 288.143 384.588 301.255 367.703 301.255H267.647L240.117 246.354Z" fill="#FE5244"/>
<path d="M396.308 259.832C396.308 275.13 381.045 293.848 364.16 293.848H264.104" stroke="white" stroke-width="0.967051" stroke-miterlimit="10" stroke-linecap="round" stroke-linejoin="round"/>
<path d="M386.773 256.785C384.27 270.444 370.911 285.038 356.282 285.038H260.05" stroke="white" stroke-width="0.967051" stroke-miterlimit="10" stroke-linecap="round" stroke-linejoin="round"/>
<path d="M375.934 253.543C371.704 265.14 360.23 276.05 347.805 276.05H254.939" stroke="white" stroke-width="0.967051" stroke-miterlimit="10" stroke-linecap="round" stroke-linejoin="round"/>
<path d="M367.597 251.27C362.045 259.712 352.933 266.356 343.222 266.356H250.357" stroke="white" stroke-width="0.967051" stroke-miterlimit="10" stroke-linecap="round" stroke-linejoin="round"/>
<path d="M358.291 248.66C352.951 254.036 346.042 257.543 338.816 257.543H245.95" stroke="white" stroke-width="0.967051" stroke-miterlimit="10" stroke-linecap="round" stroke-linejoin="round"/>
<path d="M346.183 245.152C342.411 247.285 338.287 248.554 334.057 248.554H241.192" stroke="white" stroke-width="0.967051" stroke-miterlimit="10" stroke-linecap="round" stroke-linejoin="round"/>
<path d="M267.453 301.257L239.94 246.355" stroke="white" stroke-width="0.967051" stroke-miterlimit="10" stroke-linecap="round" stroke-linejoin="round"/>
<path d="M405.297 187.049C397.718 189.199 390.263 188.565 389.47 186.256C388.73 184.053 392.078 180.281 398.864 177.778C399.199 177.655 399.551 177.532 399.904 177.408C401.948 176.721 403.993 176.28 405.914 176.051C411.607 175.328 416.242 176.351 416.824 178.078C417.617 180.387 413.316 184.775 405.297 187.049Z" fill="white" stroke="#3FB1B5" stroke-width="0.967051" stroke-miterlimit="10" stroke-linejoin="round"/>
<path d="M400.503 238.446H397.595L389.963 186.929V186.894L389.77 185.607C390.14 183.263 393.806 179.949 400.274 177.799C403.499 176.724 406.707 176.248 409.439 176.195L412.224 183.827L412.488 184.55L421.3 208.713C426.588 223.148 415.89 238.446 400.503 238.446Z" fill="#EFBF9A"/>
<path d="M412.4 184.373C410.549 185.537 408.152 186.612 405.297 187.422C398.741 189.273 392.096 188.515 389.963 186.929V186.894L389.77 185.607C390.14 183.263 393.806 179.949 400.274 177.799C403.499 176.724 406.707 176.248 409.439 176.195L412.4 184.373Z" fill="#3D3D3D"/>
<path d="M306.104 196.06L296.851 219.078C292.286 230.446 281.253 237.902 268.986 237.902H144.608V226.516C144.608 223.767 146.3 221.299 148.873 220.33L161.651 215.483C162.814 215.042 164.03 214.813 165.264 214.813H179.769L261.866 206.529L276.036 174.082L306.104 196.06Z" fill="#EFBF9A"/>
<path d="M158.003 222.48L148.362 226.129C146.423 226.869 145.136 228.72 145.136 230.799" stroke="#3D3D3D" stroke-width="0.967051" stroke-miterlimit="10" stroke-linecap="round"/>
<path d="M158.003 228.297L148.362 231.945C146.423 232.685 145.136 234.536 145.136 236.616" stroke="#3D3D3D" stroke-width="0.967051" stroke-miterlimit="10" stroke-linecap="round"/>
<path d="M158.003 233.902L148.362 237.374" stroke="#3D3D3D" stroke-width="0.967051" stroke-miterlimit="10" stroke-linecap="round"/>
<path d="M156.998 217.438C156.998 217.438 166.022 194.402 168.912 194.79C171.803 195.178 160.911 215.957 160.911 215.957L156.998 217.438Z" fill="#FE5244"/>
<path d="M276.036 174.098L273.957 178.839L300.588 209.77L306.104 196.058L276.036 174.098Z" fill="#3D3D3D"/>
<path d="M389.963 186.944L400.891 260.616L320.539 238.074L306.104 196.039L268.845 168.808L281.923 153.228C293.591 139.322 310.81 131.285 328.964 131.285H354.784C377.238 131.285 397.912 143.552 408.681 163.257L417.053 177.744C417.053 177.744 414.532 174.043 400.944 177.762C388.976 181.058 389.963 186.944 389.963 186.944Z" fill="#3FB1B5"/>
<path d="M306.104 195.7L310.281 177.582" stroke="white" stroke-width="0.967051" stroke-miterlimit="10" stroke-linecap="round" stroke-linejoin="round"/>
<path d="M398.864 243.417L385.275 158.941" stroke="white" stroke-width="0.967051" stroke-miterlimit="10" stroke-linecap="round" stroke-linejoin="round"/>
<path d="M320.521 237.738L400.715 260.615" stroke="white" stroke-width="0.967051" stroke-miterlimit="10" stroke-linecap="round" stroke-linejoin="round"/>
<path d="M324.857 119.505V131.349L345.76 131.173V110.27L324.857 119.505Z" fill="#EFBF9A"/>
<path d="M347.452 106.63V106.947C347.452 110.12 345.055 112.693 341.883 112.693H340.649C339.856 115.83 332.806 119.496 327.8 119.496H321.967C315.586 119.496 310.704 113.768 311.744 107.458L312.026 105.749L310.299 104.78C309.312 104.216 309.03 102.929 309.717 102.012L313.454 97.0774L314.265 92.213C314.917 88.2121 317.543 84.9515 321.033 83.3477C322.407 98.8399 336.084 100.673 339.697 100.884H341.707C344.879 100.884 347.452 103.458 347.452 106.63Z" fill="#EFBF9A"/>
<path d="M338.199 108.147C338.199 105.644 340.226 103.617 342.729 103.617" stroke="#3D3D3D" stroke-width="0.967051" stroke-miterlimit="10" stroke-linecap="round"/>
<path d="M319.094 101.038C319.59 101.038 319.993 100.107 319.993 98.9586C319.993 97.81 319.59 96.8789 319.094 96.8789C318.597 96.8789 318.195 97.81 318.195 98.9586C318.195 100.107 318.597 101.038 319.094 101.038Z" fill="#3D3D3D"/>
<path d="M317.719 92.535C317.719 92.535 320.204 92.2882 322.76 95.8132" stroke="#3D3D3D" stroke-width="0.967051" stroke-miterlimit="10" stroke-linecap="round"/>
<path d="M339.697 100.871H341.707C344.879 100.871 347.452 103.445 347.452 106.617V106.934C347.452 110.107 345.055 112.68 341.883 112.68L340.526 113.632C334.815 117.298 326.919 131.715 328.858 141.92C331.043 153.394 341.037 155.949 350.272 154.187C359.508 152.424 366.24 147.049 364.055 135.557C363.808 134.2 363.403 132.843 362.892 131.503C363.05 131.556 363.191 131.609 363.35 131.662C374.454 134.694 387.496 135.046 391.091 126.375C394.687 117.703 393.876 109.12 383.072 104.643C376.798 102.035 368.267 102.052 361.658 103.85C364.989 92.2705 359.067 79.3867 348.192 78.1001C331.114 76.0732 321.315 83.1232 321.05 83.3171C321.033 85.3615 322.425 99.8668 339.697 100.871Z" fill="#3D3D3D"/>
<path d="M362.098 103.445C360.706 107.975 357.833 112.822 353.163 116.118C353.163 116.118 361.411 121.564 363.35 131.68" stroke="white" stroke-width="0.967051" stroke-miterlimit="10" stroke-linecap="round" stroke-linejoin="round"/>
<path d="M366.892 103.059H362.222V98.3887C362.222 95.9388 364.196 93.9648 366.646 93.9648H366.892C369.342 93.9648 371.316 95.9388 371.316 98.3887V98.6354C371.334 101.068 369.342 103.059 366.892 103.059Z" stroke="#FE5244" stroke-width="0.967051" stroke-miterlimit="10" stroke-linejoin="round"/>
<path d="M365.183 107.854L362.187 103.095L366.945 100.099C369.325 98.6006 372.48 99.3056 373.978 101.685L374.26 102.126C375.758 104.505 375.053 107.66 372.673 109.158L372.233 109.44C369.818 110.938 366.681 110.233 365.183 107.854Z" stroke="#FE5244" stroke-width="0.967051" stroke-miterlimit="10" stroke-linejoin="round"/>
<path d="M337.582 116.35L340.913 113.16L344.174 116.844C345.778 118.694 345.566 121.497 343.716 123.083L343.522 123.242C341.671 124.845 338.869 124.634 337.283 122.783L337.124 122.589C335.52 120.756 335.732 117.954 337.582 116.35Z" stroke="#FE5244" stroke-width="0.967051" stroke-miterlimit="10" stroke-linejoin="round"/>
<path d="M342.447 118.641L340.949 113.23L346.359 111.732C349.074 110.974 351.876 112.561 352.634 115.275L352.775 115.786C353.533 118.5 351.947 121.303 349.232 122.06L348.721 122.201C346.007 122.942 343.205 121.338 342.447 118.641Z" stroke="#FE5244" stroke-width="0.967051" stroke-miterlimit="10" stroke-linejoin="round"/>
<path d="M294.348 314.824L263.646 458.52" stroke="#FFCF2D" stroke-width="0.967051" stroke-miterlimit="10" stroke-linecap="round"/>
<path d="M372.92 314.824L403.623 458.52" stroke="#FFCF2D" stroke-width="0.967051" stroke-miterlimit="10" stroke-linecap="round"/>
<path d="M270.449 426.625H396.396" stroke="#FFCF2D" stroke-width="0.967051" stroke-miterlimit="10" stroke-linecap="round"/>
<path d="M397.084 314.827H270.167C268.563 314.827 267.259 313.523 267.259 311.919V304.182C267.259 302.578 268.563 301.273 270.167 301.273H397.084C398.688 301.273 399.992 302.578 399.992 304.182V311.919C399.992 313.523 398.688 314.827 397.084 314.827Z" fill="white" stroke="#448DF7" stroke-width="0.967051" stroke-miterlimit="10" stroke-linejoin="round"/>
</svg>
