<svg width="12" height="12" viewBox="0 0 12 12" fill="none" xmlns="http://www.w3.org/2000/svg">
<path fill-rule="evenodd" clip-rule="evenodd" d="M5.5 9.5C7.70914 9.5 9.5 7.70914 9.5 5.5C9.5 3.29086 7.70914 1.5 5.5 1.5C3.29086 1.5 1.5 3.29086 1.5 5.5C1.5 7.70914 3.29086 9.5 5.5 9.5ZM5.5 11C8.53757 11 11 8.53757 11 5.5C11 2.46243 8.53757 0 5.5 0C2.46243 0 0 2.46243 0 5.5C0 8.53757 2.46243 11 5.5 11Z" fill="black"/>
<path d="M9.28332 8.2245L11.5291 10.4703C11.7617 10.7028 11.7127 11.1288 11.4198 11.4217C11.127 11.7146 10.701 11.7635 10.4684 11.5309L8.22266 9.28516L9.28332 8.2245Z" fill="black"/>
</svg>
