<svg width="71" height="70" viewBox="0 0 71 70" fill="none" xmlns="http://www.w3.org/2000/svg">
<path d="M54.3048 0H15.8651C7.14996 0 0.0849609 7.065 0.0849609 15.7801V54.2199C0.0849609 62.935 7.14996 70 15.8651 70H54.3048C63.02 70 70.085 62.935 70.085 54.2199V15.7801C70.085 7.065 63.02 0 54.3048 0Z" fill="#448DF7"/>
<path fill-rule="evenodd" clip-rule="evenodd" d="M24.4275 39.5567L15.8906 37.3649C15.0255 37.1366 14.9287 36.0303 15.741 35.6553L48.5984 20.0125C49.2098 19.7564 49.9964 20.2956 49.9532 21.0087L46.3187 49.4975C46.1707 50.2198 45.3584 50.5949 44.799 50.2385L36.0157 45.2309C35.4563 44.8745 34.8274 44.9295 34.3384 45.3776L30.0425 49.4015C29.5623 49.9502 28.6972 49.7219 28.4348 49.1368L24.4275 39.5567ZM42.1196 26.8663L26.916 37.8232C26.3134 38.1799 26.0605 38.9114 26.3317 39.597L28.633 45.3744C28.773 45.7675 29.3932 45.6119 29.4628 45.2004L29.6006 41.9457C29.6527 41.3331 29.9144 40.7022 30.2985 40.2633L42.4693 27.2411C42.7662 27.0124 42.4165 26.6377 42.1196 26.8663Z" fill="white"/>
</svg>
