<svg width="70" height="70" viewBox="0 0 70 70" fill="none" xmlns="http://www.w3.org/2000/svg">
<path d="M54.2199 0H15.7801C7.065 0 0 7.065 0 15.7801V54.2199C0 62.935 7.065 70 15.7801 70H54.2199C62.935 70 70 62.935 70 54.2199V15.7801C70 7.065 62.935 0 54.2199 0Z" fill="#448DF7"/>
<path d="M17 53.0391L19.5212 44.0845C17.8999 41.3301 17.0463 38.1963 17.0463 34.9769C17.0463 25.0644 25.1107 17 35.0232 17C44.9357 17 53 25.0644 53 34.9769C53 44.8894 44.9357 52.9538 35.0232 52.9538C31.9345 52.9538 28.9101 52.1632 26.2346 50.662L17 53.0391ZM26.7067 47.3915L27.257 47.7275C29.5897 49.1516 32.2753 49.9043 35.0232 49.9043C43.2542 49.9043 49.9505 43.2079 49.9505 34.9769C49.9505 26.7459 43.2542 20.0495 35.0232 20.0495C26.7922 20.0495 20.0958 26.7459 20.0958 34.9769C20.0958 37.8449 20.9109 40.63 22.4528 43.031L22.8234 43.6081L21.3715 48.7648L26.7067 47.3915Z" fill="white"/>
<path d="M29.9731 26.6126L28.8066 26.549C28.4402 26.529 28.0808 26.6514 27.8039 26.892C27.2384 27.3831 26.3341 28.3325 26.0564 29.5697C25.6422 31.4144 26.2823 33.6732 27.9388 35.9321C29.5954 38.191 32.6825 41.8052 38.1414 43.3488C39.9005 43.8462 41.2843 43.5109 42.3519 42.8279C43.1975 42.287 43.7804 41.4188 43.9905 40.4373L44.1767 39.5674C44.2359 39.291 44.0955 39.0104 43.8387 38.892L39.8964 37.0749C39.6405 36.957 39.337 37.0315 39.1649 37.2546L37.6172 39.2609C37.5003 39.4125 37.3002 39.4726 37.1195 39.4091C36.0596 39.0366 32.5093 37.5497 30.5613 33.7973C30.4768 33.6345 30.4978 33.437 30.6176 33.2982L32.0967 31.5871C32.2479 31.4123 32.286 31.1667 32.1952 30.9544L30.4959 26.9786C30.4054 26.767 30.2027 26.6251 29.9731 26.6126Z" fill="white"/>
</svg>
